<?xml version='1.0' encoding='UTF-8'?><!DOCTYPE svg PUBLIC "-//W3C//DTD SVG 1.1//EN" "http://www.w3.org/Graphics/SVG/1.1/DTD/svg11.dtd"><svg xmlns="http://www.w3.org/2000/svg" xmlns:xlink="http://www.w3.org/1999/xlink" version="1.1" x="0" y="0" width="26px" height="7488px" viewBox="0 0 26 7488" preserveAspectRatio="none"><g transform="translate(0,2964)"><path d="M0 0h24v24H0z" fill="none"/>
    <path d="M19 3H5c-1.11 0-2 .9-2 2v14c0 1.1.89 2 2 2h14c1.11 0 2-.9 2-2V5c0-1.1-.89-2-2-2zm-9 14l-5-5 1.41-1.41L10 14.17l7.59-7.59L19 8l-9 9z"/>
</g><g transform="translate(0,6084)"><!-- Generator: Sketch 44.1 (41455) - http://www.bohemiancoding.com/sketch -->
    <title>Checkbox Grid Icon</title>
    <desc>Created with Sketch.</desc>
    <defs/>
    <g id="Page-1" stroke="none" stroke-width="1" fill="none" fill-rule="evenodd">
        <g id="Checkbox-Grid-Icon" fill="#000000">
            <rect id="Rectangle-18" x="1" y="1" width="6" height="6"/>
            <rect id="Rectangle-18-Copy" x="9" y="1" width="6" height="6"/>
            <rect id="Rectangle-18-Copy-2" x="17" y="1" width="6" height="6"/>
            <rect id="Rectangle-18-Copy-3" x="1" y="9" width="6" height="6"/>
            <rect id="Rectangle-18-Copy-4" x="9" y="9" width="6" height="6"/>
            <rect id="Rectangle-18-Copy-5" x="17" y="9" width="6" height="6"/>
            <rect id="Rectangle-18-Copy-6" x="1" y="17" width="6" height="6"/>
            <rect id="Rectangle-18-Copy-7" x="9" y="17" width="6" height="6"/>
            <rect id="Rectangle-18-Copy-8" x="17" y="17" width="6" height="6"/>
        </g>
    </g>
</g><g transform="translate(0,6162)"><!-- Generator: Sketch 44.1 (41455) - http://www.bohemiancoding.com/sketch -->
    <title>Checkbox Grid Icon</title>
    <desc>Created with Sketch.</desc>
    <defs/>
    <g id="Page-1" stroke="none" stroke-width="1" fill="none" fill-rule="evenodd">
        <g id="Checkbox-Grid-Icon" fill="#5F6368">
            <rect id="Rectangle-18" x="1" y="1" width="6" height="6"/>
            <rect id="Rectangle-18-Copy" x="9" y="1" width="6" height="6"/>
            <rect id="Rectangle-18-Copy-2" x="17" y="1" width="6" height="6"/>
            <rect id="Rectangle-18-Copy-3" x="1" y="9" width="6" height="6"/>
            <rect id="Rectangle-18-Copy-4" x="9" y="9" width="6" height="6"/>
            <rect id="Rectangle-18-Copy-5" x="17" y="9" width="6" height="6"/>
            <rect id="Rectangle-18-Copy-6" x="1" y="17" width="6" height="6"/>
            <rect id="Rectangle-18-Copy-7" x="9" y="17" width="6" height="6"/>
            <rect id="Rectangle-18-Copy-8" x="17" y="17" width="6" height="6"/>
        </g>
    </g>
</g><g transform="translate(0,2340)"><!-- Generator: Sketch 44.1 (41455) - http://www.bohemiancoding.com/sketch -->
    <title>Checkbox Grid Icon</title>
    <desc>Created with Sketch.</desc>
    <defs/>
    <g id="Page-1" stroke="none" stroke-width="1" fill="none" fill-rule="evenodd">
        <g id="Checkbox-Grid-Icon" fill="#ffffff">
            <rect id="Rectangle-18" x="1" y="1" width="6" height="6"/>
            <rect id="Rectangle-18-Copy" x="9" y="1" width="6" height="6"/>
            <rect id="Rectangle-18-Copy-2" x="17" y="1" width="6" height="6"/>
            <rect id="Rectangle-18-Copy-3" x="1" y="9" width="6" height="6"/>
            <rect id="Rectangle-18-Copy-4" x="9" y="9" width="6" height="6"/>
            <rect id="Rectangle-18-Copy-5" x="17" y="9" width="6" height="6"/>
            <rect id="Rectangle-18-Copy-6" x="1" y="17" width="6" height="6"/>
            <rect id="Rectangle-18-Copy-7" x="9" y="17" width="6" height="6"/>
            <rect id="Rectangle-18-Copy-8" x="17" y="17" width="6" height="6"/>
        </g>
    </g>
</g><g transform="translate(0,5252)"><path d="M0 0h24v24H0z" fill="none"/>
    <path d="M19 3H5c-1.11 0-2 .9-2 2v14c0 1.1.89 2 2 2h14c1.11 0 2-.9 2-2V5c0-1.1-.89-2-2-2zm-9 14l-5-5 1.41-1.41L10 14.17l7.59-7.59L19 8l-9 9z" fill="#5F6368"/>
</g><g transform="translate(0,6864)"><path d="M0 0h24v24H0z" fill="none"/>
    <path d="M19 3H5c-1.11 0-2 .9-2 2v14c0 1.1.89 2 2 2h14c1.11 0 2-.9 2-2V5c0-1.1-.89-2-2-2zm-9 14l-5-5 1.41-1.41L10 14.17l7.59-7.59L19 8l-9 9z" fill="#ffffff"/>
</g><g transform="translate(0,1170)"><path fill="#5F6368" d="M13 7h-2v4H7v2h4v4h2v-4h4v-2h-4V7zm-1-5C6.48 2 2 6.48 2 12s4.48 10 10 10 10-4.48 10-10S17.52 2 12 2zm0 18c-4.41 0-8-3.59-8-8s3.59-8 8-8 8 3.59 8 8-3.59 8-8 8z"/>
</g><g transform="translate(0,6604)"><path fill="#000000" d="M13 7h-2v4H7v2h4v4h2v-4h4v-2h-4V7zm-1-5C6.48 2 2 6.48 2 12s4.48 10 10 10 10-4.48 10-10S17.52 2 12 2zm0 18c-4.41 0-8-3.59-8-8s3.59-8 8-8 8 3.59 8 8-3.59 8-8 8z"/>
</g><g transform="translate(0,5746)"><path fill="#FFFFFF" d="M13 7h-2v4H7v2h4v4h2v-4h4v-2h-4V7zm-1-5C6.48 2 2 6.48 2 12s4.48 10 10 10 10-4.48 10-10S17.52 2 12 2zm0 18c-4.41 0-8-3.59-8-8s3.59-8 8-8 8 3.59 8 8-3.59 8-8 8z"/>
</g><g transform="translate(0,6214)"><path fill="#000000" d="M9 12c2.21 0 4-1.79 4-4s-1.79-4-4-4-4 1.79-4 4 1.79 4 4 4zm0-6c1.1 0 2 .9 2 2s-.9 2-2 2-2-.9-2-2 .9-2 2-2zm0 7c-2.67 0-8 1.34-8 4v3h16v-3c0-2.66-5.33-4-8-4zm6 5H3v-.99C3.2 16.29 6.3 15 9 15s5.8 1.29 6 2v1zm3-4v-3h-3V9h3V6h2v3h3v2h-3v3h-2z"/>
</g><g transform="translate(0,260)"><path fill="#4285F4" d="M9 12c2.21 0 4-1.79 4-4s-1.79-4-4-4-4 1.79-4 4 1.79 4 4 4zm0-6c1.1 0 2 .9 2 2s-.9 2-2 2-2-.9-2-2 .9-2 2-2zm0 7c-2.67 0-8 1.34-8 4v3h16v-3c0-2.66-5.33-4-8-4zm6 5H3v-.99C3.2 16.29 6.3 15 9 15s5.8 1.29 6 2v1zm3-4v-3h-3V9h3V6h2v3h3v2h-3v3h-2z"/>
</g><g transform="translate(0,1716)"><path fill="#FFFFFF" d="M9 12c2.21 0 4-1.79 4-4s-1.79-4-4-4-4 1.79-4 4 1.79 4 4 4zm0-6c1.1 0 2 .9 2 2s-.9 2-2 2-2-.9-2-2 .9-2 2-2zm0 7c-2.67 0-8 1.34-8 4v3h16v-3c0-2.66-5.33-4-8-4zm6 5H3v-.99C3.2 16.29 6.3 15 9 15s5.8 1.29 6 2v1zm3-4v-3h-3V9h3V6h2v3h3v2h-3v3h-2z"/>
</g><g transform="translate(0,5070)"><path d="M0 0h24v24H0z" fill="none"/>
    <path d="M12 2C6.48 2 2 6.48 2 12s4.48 10 10 10 10-4.48 10-10S17.52 2 12 2zm0 12l-4-4h8l-4 4z"/>
</g><g transform="translate(0,3042)"><path d="M0 0h24v24H0z" fill="none"/>
    <path d="M12 2C6.48 2 2 6.48 2 12s4.48 10 10 10 10-4.48 10-10S17.52 2 12 2zm0 12l-4-4h8l-4 4z" fill="#5F6368"/>
</g><g transform="translate(0,546)"><path d="M0 0h24v24H0z" fill="none"/>
    <path d="M12 2C6.48 2 2 6.48 2 12s4.48 10 10 10 10-4.48 10-10S17.52 2 12 2zm0 12l-4-4h8l-4 4z" fill="#ffffff"/>
</g><g transform="translate(0,156)"><path d="M0 0h24v24H0z" fill="none"/>
    <path d="M19.35 10.04C18.67 6.59 15.64 4 12 4 9.11 4 6.6 5.64 5.35 8.04 2.34 8.36 0 10.91 0 14c0 3.31 2.69 6 6 6h13c2.76 0 5-2.24 5-5 0-2.64-2.05-4.78-4.65-4.96zM14 13v4h-4v-4H7l5-5 5 5h-3z"/>
</g><g transform="translate(0,4238)"><path d="M0 0h24v24H0z" fill="none"/>
    <path d="M19.35 10.04C18.67 6.59 15.64 4 12 4 9.11 4 6.6 5.64 5.35 8.04 2.34 8.36 0 10.91 0 14c0 3.31 2.69 6 6 6h13c2.76 0 5-2.24 5-5 0-2.64-2.05-4.78-4.65-4.96zM14 13v4h-4v-4H7l5-5 5 5h-3z" fill="#5F6368"/>
</g><g transform="translate(0,5902)"><path d="M0 0h24v24H0z" fill="none"/>
    <path d="M19.35 10.04C18.67 6.59 15.64 4 12 4 9.11 4 6.6 5.64 5.35 8.04 2.34 8.36 0 10.91 0 14c0 3.31 2.69 6 6 6h13c2.76 0 5-2.24 5-5 0-2.64-2.05-4.78-4.65-4.96zM14 13v4h-4v-4H7l5-5 5 5h-3z" fill="#ffffff"/>
</g><g transform="translate(0,1976)"><path fill="#5F6368" d="M3 4v3h5v12h3V7h5V4h-13zm19 5h-9v3h3v7h3v-7h3V9z"/>
</g><g transform="translate(0,4758)"><path d="M3 4v3h5v12h3V7h5V4h-13zm19 5h-9v3h3v7h3v-7h3V9z"/>
</g><g transform="translate(0,572)"><path d="M3 4v3h5v12h3V7h5V4h-13zm19 5h-9v3h3v7h3v-7h3V9z" fill="#ffffff"/>
</g><g transform="translate(0,4498)"><path d="M14 17H4v2h10v-2zm6-8H4v2h16V9zM4 15h16v-2H4v2zM4 5v2h16V5H4z"/>
    <path d="M0 0h24v24H0z" fill="none"/>
</g><g transform="translate(0,7150)"><path d="M14 17H4v2h10v-2zm6-8H4v2h16V9zM4 15h16v-2H4v2zM4 5v2h16V5H4z" fill="#5F6368"/>
    <path d="M0 0h24v24H0z" fill="none"/>
</g><g transform="translate(0,2652)"><path d="M14 17H4v2h10v-2zm6-8H4v2h16V9zM4 15h16v-2H4v2zM4 5v2h16V5H4z" fill="#ffffff"/>
    <path d="M0 0h24v24H0z" fill="none"/>
</g><g transform="translate(0,3926)"><!-- Generator: Sketch 44.1 (41455) - http://www.bohemiancoding.com/sketch -->
    <title>Multiple Choice Grid Icon</title>
    <desc>Created with Sketch.</desc>
    <defs/>
    <g id="Page-1" stroke="none" stroke-width="1" fill="none" fill-rule="evenodd">
        <g id="Multiple-Choice-Grid-Icon" fill="#000000">
            <circle id="Oval" cx="4" cy="4" r="3"/>
            <circle id="Oval-Copy-12" cx="4" cy="12" r="3"/>
            <circle id="Oval-Copy-15" cx="4" cy="20" r="3"/>
            <circle id="Oval-Copy-4" cx="12" cy="4" r="3"/>
            <circle id="Oval-Copy-13" cx="12" cy="12" r="3"/>
            <circle id="Oval-Copy-16" cx="12" cy="20" r="3"/>
            <circle id="Oval-Copy-5" cx="20" cy="4" r="3"/>
            <circle id="Oval-Copy-14" cx="20" cy="12" r="3"/>
            <circle id="Oval-Copy-17" cx="20" cy="20" r="3"/>
        </g>
    </g>
</g><g transform="translate(0,5850)"><!-- Generator: Sketch 44.1 (41455) - http://www.bohemiancoding.com/sketch -->
    <title>Multiple Choice Grid Icon</title>
    <desc>Created with Sketch.</desc>
    <defs/>
    <g id="Page-1" stroke="none" stroke-width="1" fill="none" fill-rule="evenodd">
        <g id="Multiple-Choice-Grid-Icon" fill="#5F6368">
            <circle id="Oval" cx="4" cy="4" r="3"/>
            <circle id="Oval-Copy-12" cx="4" cy="12" r="3"/>
            <circle id="Oval-Copy-15" cx="4" cy="20" r="3"/>
            <circle id="Oval-Copy-4" cx="12" cy="4" r="3"/>
            <circle id="Oval-Copy-13" cx="12" cy="12" r="3"/>
            <circle id="Oval-Copy-16" cx="12" cy="20" r="3"/>
            <circle id="Oval-Copy-5" cx="20" cy="4" r="3"/>
            <circle id="Oval-Copy-14" cx="20" cy="12" r="3"/>
            <circle id="Oval-Copy-17" cx="20" cy="20" r="3"/>
        </g>
    </g>
</g><g transform="translate(0,5928)"><!-- Generator: Sketch 44.1 (41455) - http://www.bohemiancoding.com/sketch -->
    <title>Multiple Choice Grid Icon</title>
    <desc>Created with Sketch.</desc>
    <defs/>
    <g id="Page-1" stroke="none" stroke-width="1" fill="none" fill-rule="evenodd">
        <g id="Multiple-Choice-Grid-Icon" fill="#ffffff">
            <circle id="Oval" cx="4" cy="4" r="3"/>
            <circle id="Oval-Copy-12" cx="4" cy="12" r="3"/>
            <circle id="Oval-Copy-15" cx="4" cy="20" r="3"/>
            <circle id="Oval-Copy-4" cx="12" cy="4" r="3"/>
            <circle id="Oval-Copy-13" cx="12" cy="12" r="3"/>
            <circle id="Oval-Copy-16" cx="12" cy="20" r="3"/>
            <circle id="Oval-Copy-5" cx="20" cy="4" r="3"/>
            <circle id="Oval-Copy-14" cx="20" cy="12" r="3"/>
            <circle id="Oval-Copy-17" cx="20" cy="20" r="3"/>
        </g>
    </g>
</g><g transform="translate(0,780)"><path d="M12 7c-2.76 0-5 2.24-5 5s2.24 5 5 5 5-2.24 5-5-2.24-5-5-5zm0-5C6.48 2 2 6.48 2 12s4.48 10 10 10 10-4.48 10-10S17.52 2 12 2zm0 18c-4.42 0-8-3.58-8-8s3.58-8 8-8 8 3.58 8 8-3.58 8-8 8z"/>
    <path d="M0 0h24v24H0z" fill="none"/>
</g><g transform="translate(0,286)"><path d="M12 7c-2.76 0-5 2.24-5 5s2.24 5 5 5 5-2.24 5-5-2.24-5-5-5zm0-5C6.48 2 2 6.48 2 12s4.48 10 10 10 10-4.48 10-10S17.52 2 12 2zm0 18c-4.42 0-8-3.58-8-8s3.58-8 8-8 8 3.58 8 8-3.58 8-8 8z" fill="#5F6368"/>
    <path d="M0 0h24v24H0z" fill="none"/>
</g><g transform="translate(0,884)"><path d="M12 7c-2.76 0-5 2.24-5 5s2.24 5 5 5 5-2.24 5-5-2.24-5-5-5zm0-5C6.48 2 2 6.48 2 12s4.48 10 10 10 10-4.48 10-10S17.52 2 12 2zm0 18c-4.42 0-8-3.58-8-8s3.58-8 8-8 8 3.58 8 8-3.58 8-8 8z" fill="#ffffff"/>
    <path d="M0 0h24v24H0z" fill="none"/>
</g><g transform="translate(0,3614)"><defs>
        <path id="a" d="M0 0h24v24H0V0z"/>
    </defs>
    <clipPath id="b">
        <use xlink:href="#a" overflow="visible"/>
    </clipPath>
    <path clip-path="url(#b)" d="M19.5 9.5c-1.03 0-1.9.62-2.29 1.5h-2.92c-.39-.88-1.26-1.5-2.29-1.5s-1.9.62-2.29 1.5H6.79c-.39-.88-1.26-1.5-2.29-1.5C3.12 9.5 2 10.62 2 12s1.12 2.5 2.5 2.5c1.03 0 1.9-.62 2.29-1.5h2.92c.39.88 1.26 1.5 2.29 1.5s1.9-.62 2.29-1.5h2.92c.39.88 1.26 1.5 2.29 1.5 1.38 0 2.5-1.12 2.5-2.5s-1.12-2.5-2.5-2.5z"/>
</g><g transform="translate(0,2366)"><defs>
        <path id="a" d="M0 0h24v24H0V0z"/>
    </defs>
    <clipPath id="b">
        <use xlink:href="#a" overflow="visible"/>
    </clipPath>
    <path clip-path="url(#b)" d="M19.5 9.5c-1.03 0-1.9.62-2.29 1.5h-2.92c-.39-.88-1.26-1.5-2.29-1.5s-1.9.62-2.29 1.5H6.79c-.39-.88-1.26-1.5-2.29-1.5C3.12 9.5 2 10.62 2 12s1.12 2.5 2.5 2.5c1.03 0 1.9-.62 2.29-1.5h2.92c.39.88 1.26 1.5 2.29 1.5s1.9-.62 2.29-1.5h2.92c.39.88 1.26 1.5 2.29 1.5 1.38 0 2.5-1.12 2.5-2.5s-1.12-2.5-2.5-2.5z" fill="#5F6368"/>
</g><g transform="translate(0,1300)"><defs>
        <path id="a" d="M0 0h24v24H0V0z"/>
    </defs>
    <clipPath id="b">
        <use xlink:href="#a" overflow="visible"/>
    </clipPath>
    <path clip-path="url(#b)" d="M19.5 9.5c-1.03 0-1.9.62-2.29 1.5h-2.92c-.39-.88-1.26-1.5-2.29-1.5s-1.9.62-2.29 1.5H6.79c-.39-.88-1.26-1.5-2.29-1.5C3.12 9.5 2 10.62 2 12s1.12 2.5 2.5 2.5c1.03 0 1.9-.62 2.29-1.5h2.92c.39.88 1.26 1.5 2.29 1.5s1.9-.62 2.29-1.5h2.92c.39.88 1.26 1.5 2.29 1.5 1.38 0 2.5-1.12 2.5-2.5s-1.12-2.5-2.5-2.5z" fill="#ffffff"/>
</g><g transform="translate(0,6318)"><defs>
        <path id="a" d="M0 0h24v24H0V0z"/>
    </defs>
    <clipPath id="b">
        <use xlink:href="#a" overflow="visible"/>
    </clipPath>
    <path d="M4 9h16v2H4zm0 4h10v2H4z" clip-path="url(#b)"/>
</g><g transform="translate(0,6396)"><defs>
        <path id="a" d="M0 0h24v24H0V0z"/>
    </defs>
    <clipPath id="b">
        <use xlink:href="#a" overflow="visible"/>
    </clipPath>
    <path d="M4 9h16v2H4zm0 4h10v2H4z" clip-path="url(#b)" fill="#5F6368"/>
</g><g transform="translate(0,2990)"><defs>
        <path id="a" d="M0 0h24v24H0V0z"/>
    </defs>
    <clipPath id="b">
        <use xlink:href="#a" overflow="visible"/>
    </clipPath>
    <path d="M4 9h16v2H4zm0 4h10v2H4z" clip-path="url(#b)" fill="#ffffff"/>
</g><g transform="translate(0,4576)"><path d="M11.99 2C6.47 2 2 6.48 2 12s4.47 10 9.99 10C17.52 22 22 17.52 22 12S17.52 2 11.99 2zM12 20c-4.42 0-8-3.58-8-8s3.58-8 8-8 8 3.58 8 8-3.58 8-8 8z"/>
    <path d="M0 0h24v24H0z" fill="none"/>
    <path d="M12.5 7H11v6l5.25 3.15.75-1.23-4.5-2.67z"/>
</g><g transform="translate(0,4732)"><path d="M11.99 2C6.47 2 2 6.48 2 12s4.47 10 9.99 10C17.52 22 22 17.52 22 12S17.52 2 11.99 2zM12 20c-4.42 0-8-3.58-8-8s3.58-8 8-8 8 3.58 8 8-3.58 8-8 8z" fill="#5F6368"/>
    <path d="M0 0h24v24H0z" fill="none"/>
    <path d="M12.5 7H11v6l5.25 3.15.75-1.23-4.5-2.67z" fill="#5F6368"/>
</g><g transform="translate(0,6266)"><path d="M11.99 2C6.47 2 2 6.48 2 12s4.47 10 9.99 10C17.52 22 22 17.52 22 12S17.52 2 11.99 2zM12 20c-4.42 0-8-3.58-8-8s3.58-8 8-8 8 3.58 8 8-3.58 8-8 8z" fill="#ffffff"/>
    <path d="M0 0h24v24H0z" fill="none"/>
    <path d="M12.5 7H11v6l5.25 3.15.75-1.23-4.5-2.67z" fill="#ffffff"/>
</g><g transform="translate(0,3432)"><path fill="none" d="M0 0h24v24H0V0z"/>
    <path d="M7.71 3.52L1.15 15l3.42 5.99 6.56-11.47-3.42-6zM13.35 15H9.73L6.3 21h8.24c-.96-1.06-1.54-2.46-1.54-4 0-.7.13-1.37.35-2zM20 16v-3h-2v3h-3v2h3v3h2v-3h3v-2h-3zm.71-4.75L15.42 2H8.58v.01l6.15 10.77C15.82 11.68 17.33 11 19 11c.59 0 1.17.09 1.71.25z" fill="#5F6368"/>
</g><g transform="translate(0,3406)"><path fill="none" d="M0 0h24v24H0V0z"/>
    <path d="M7.71 3.52L1.15 15l3.42 5.99 6.56-11.47-3.42-6zM13.35 15H9.73L6.3 21h8.24c-.96-1.06-1.54-2.46-1.54-4 0-.7.13-1.37.35-2zM20 16v-3h-2v3h-3v2h3v3h2v-3h3v-2h-3zm.71-4.75L15.42 2H8.58v.01l6.15 10.77C15.82 11.68 17.33 11 19 11c.59 0 1.17.09 1.71.25z"/>
</g><g transform="translate(0,5330)"><path fill="none" d="M0 0h24v24H0V0z"/>
    <path d="M7.71 3.52L1.15 15l3.42 5.99 6.56-11.47-3.42-6zM13.35 15H9.73L6.3 21h8.24c-.96-1.06-1.54-2.46-1.54-4 0-.7.13-1.37.35-2zM20 16v-3h-2v3h-3v2h3v3h2v-3h3v-2h-3zm.71-4.75L15.42 2H8.58v.01l6.15 10.77C15.82 11.68 17.33 11 19 11c.59 0 1.17.09 1.71.25z" fill="#FFFFFF"/>
</g><g transform="translate(0,2262)"><path d="M7 15v2h10v-2H7zm-4 6h18v-2H3v2zm0-8h18v-2H3v2zm4-6v2h10V7H7zM3 3v2h18V3H3z"/>
    <path d="M0 0h24v24H0z" fill="none"/>
</g><g transform="translate(0,7384)"><path d="M7 15v2h10v-2H7zm-4 6h18v-2H3v2zm0-8h18v-2H3v2zm4-6v2h10V7H7zM3 3v2h18V3H3z" fill="#ffffff"/>
    <path d="M0 0h24v24H0z" fill="none"/>
</g><g transform="translate(0,5980)"><path d="M15 15H3v2h12v-2zm0-8H3v2h12V7zM3 13h18v-2H3v2zm0 8h18v-2H3v2zM3 3v2h18V3H3z"/>
    <path d="M0 0h24v24H0z" fill="none"/>
</g><g transform="translate(0,2392)"><path d="M15 15H3v2h12v-2zm0-8H3v2h12V7zM3 13h18v-2H3v2zm0 8h18v-2H3v2zM3 3v2h18V3H3z" fill="#ffffff"/>
    <path d="M0 0h24v24H0z" fill="none"/>
</g><g transform="translate(0,3588)"><path d="M3 21h18v-2H3v2zm6-4h12v-2H9v2zm-6-4h18v-2H3v2zm6-4h12V7H9v2zM3 3v2h18V3H3z"/>
    <path d="M0 0h24v24H0z" fill="none"/>
</g><g transform="translate(0,494)"><path d="M3 21h18v-2H3v2zm6-4h12v-2H9v2zm-6-4h18v-2H3v2zm6-4h12V7H9v2zM3 3v2h18V3H3z" fill="#ffffff"/>
    <path d="M0 0h24v24H0z" fill="none"/>
</g><g transform="translate(0,598)"><path fill="#5F6368" d="M18 9l-1.41-1.42L10 14.17l-2.59-2.58L6 13l4 4zm1-6h-4.18C14.4 1.84 13.3 1 12 1c-1.3 0-2.4.84-2.82 2H5c-.14 0-.27.01-.4.04-.39.08-.74.28-1.01.55-.18.18-.33.4-.43.64-.1.23-.16.49-.16.77v14c0 .27.06.54.16.78s.25.45.43.64c.27.27.62.47 1.01.55.13.02.26.03.4.03h14c1.1 0 2-.9 2-2V5c0-1.1-.9-2-2-2zm-7-.25c.41 0 .75.34.75.75s-.34.75-.75.75-.75-.34-.75-.75.34-.75.75-.75zM19 19H5V5h14v14z"/>
</g><g transform="translate(0,416)"><path fill="#000000" d="M18 9l-1.41-1.42L10 14.17l-2.59-2.58L6 13l4 4zm1-6h-4.18C14.4 1.84 13.3 1 12 1c-1.3 0-2.4.84-2.82 2H5c-.14 0-.27.01-.4.04-.39.08-.74.28-1.01.55-.18.18-.33.4-.43.64-.1.23-.16.49-.16.77v14c0 .27.06.54.16.78s.25.45.43.64c.27.27.62.47 1.01.55.13.02.26.03.4.03h14c1.1 0 2-.9 2-2V5c0-1.1-.9-2-2-2zm-7-.25c.41 0 .75.34.75.75s-.34.75-.75.75-.75-.34-.75-.75.34-.75.75-.75zM19 19H5V5h14v14z"/>
</g><g transform="translate(0,2808)"><path fill="#1a73e8" d="M18 9l-1.41-1.42L10 14.17l-2.59-2.58L6 13l4 4zm1-6h-4.18C14.4 1.84 13.3 1 12 1c-1.3 0-2.4.84-2.82 2H5c-.14 0-.27.01-.4.04-.39.08-.74.28-1.01.55-.18.18-.33.4-.43.64-.1.23-.16.49-.16.77v14c0 .27.06.54.16.78s.25.45.43.64c.27.27.62.47 1.01.55.13.02.26.03.4.03h14c1.1 0 2-.9 2-2V5c0-1.1-.9-2-2-2zm-7-.25c.41 0 .75.34.75.75s-.34.75-.75.75-.75-.34-.75-.75.34-.75.75-.75zM19 19H5V5h14v14z"/>
</g><g transform="translate(0,7046)"><path fill="#FFFFFF" d="M18 9l-1.41-1.42L10 14.17l-2.59-2.58L6 13l4 4zm1-6h-4.18C14.4 1.84 13.3 1 12 1c-1.3 0-2.4.84-2.82 2H5c-.14 0-.27.01-.4.04-.39.08-.74.28-1.01.55-.18.18-.33.4-.43.64-.1.23-.16.49-.16.77v14c0 .27.06.54.16.78s.25.45.43.64c.27.27.62.47 1.01.55.13.02.26.03.4.03h14c1.1 0 2-.9 2-2V5c0-1.1-.9-2-2-2zm-7-.25c.41 0 .75.34.75.75s-.34.75-.75.75-.75-.34-.75-.75.34-.75.75-.75zM19 19H5V5h14v14z"/>
</g><g transform="translate(0,442)"><path d="M0 0h24v24H0V0z" fill="none"/>
  <path d="M7 10l5 5 5-5H7z"/>
</g><g transform="translate(0,2236)"><path d="M0 0h24v24H0V0z" fill="none"/>
  <path d="M7 10l5 5 5-5H7z"/>
</g><g transform="translate(0,6578)"><path d="M0 0h24v24H0V0z" fill="none"/>
  <path d="M7 10l5 5 5-5H7z"/>
</g><g transform="translate(0,1742)"><path d="M19 3H5c-1.1 0-2 .9-2 2v14c0 1.1.9 2 2 2h14c1.1 0 2-.9 2-2V5c0-1.1-.9-2-2-2zM9 17H7v-7h2v7zm4 0h-2V7h2v10zm4 0h-2v-4h2v4z"/></g><g transform="translate(0,4836)"><path d="M19 3H5c-1.1 0-2 .9-2 2v14c0 1.1.9 2 2 2h14c1.1 0 2-.9 2-2V5c0-1.1-.9-2-2-2zM9 17H7v-7h2v7zm4 0h-2V7h2v10zm4 0h-2v-4h2v4z"/>
    <path d="M0 0h24v24H0z" fill="none"/>
</g><g transform="translate(0,5460)"><path d="M19 3h-4.18C14.4 1.84 13.3 1 12 1c-1.3 0-2.4.84-2.82 2H5c-1.1 0-2 .9-2 2v14c0 1.1.9 2 2 2h14c1.1 0 2-.9 2-2V5c0-1.1-.9-2-2-2zm-7 0c.55 0 1 .45 1 1s-.45 1-1 1-1-.45-1-1 .45-1 1-1zm-2 14l-4-4 1.41-1.41L10 14.17l6.59-6.59L18 9l-8 8z" fill="#4285F4"/></g><g transform="translate(0,234)"><path fill="#5F6368" d="M11 15h2v2h-2zm0-8h2v6h-2zm8-4h-4.18C14.4 1.84 13.3 1 12 1c-1.3 0-2.4.84-2.82 2H5c-.14 0-.27.01-.4.04-.39.08-.74.28-1.01.55-.18.18-.33.4-.43.64-.1.23-.16.49-.16.77v14c0 .27.06.54.16.78s.25.45.43.64c.27.27.62.47 1.01.55.13.02.26.03.4.03h14c1.1 0 2-.9 2-2V5c0-1.1-.9-2-2-2zm-7-.25c.41 0 .75.34.75.75s-.34.75-.75.75-.75-.34-.75-.75.34-.75.75-.75zM19 19H5V5h14v14z"/>
  <path fill="none" d="M0 0h24v24H0V0z"/>
</g><g transform="translate(0,1872)"><path fill="#000000" d="M11 15h2v2h-2zm0-8h2v6h-2zm8-4h-4.18C14.4 1.84 13.3 1 12 1c-1.3 0-2.4.84-2.82 2H5c-.14 0-.27.01-.4.04-.39.08-.74.28-1.01.55-.18.18-.33.4-.43.64-.1.23-.16.49-.16.77v14c0 .27.06.54.16.78s.25.45.43.64c.27.27.62.47 1.01.55.13.02.26.03.4.03h14c1.1 0 2-.9 2-2V5c0-1.1-.9-2-2-2zm-7-.25c.41 0 .75.34.75.75s-.34.75-.75.75-.75-.34-.75-.75.34-.75.75-.75zM19 19H5V5h14v14z"/>
  <path fill="none" d="M0 0h24v24H0V0z"/>
</g><g transform="translate(0,5382)"><path fill="#FFFFFF" d="M11 15h2v2h-2zm0-8h2v6h-2zm8-4h-4.18C14.4 1.84 13.3 1 12 1c-1.3 0-2.4.84-2.82 2H5c-.14 0-.27.01-.4.04-.39.08-.74.28-1.01.55-.18.18-.33.4-.43.64-.1.23-.16.49-.16.77v14c0 .27.06.54.16.78s.25.45.43.64c.27.27.62.47 1.01.55.13.02.26.03.4.03h14c1.1 0 2-.9 2-2V5c0-1.1-.9-2-2-2zm-7-.25c.41 0 .75.34.75.75s-.34.75-.75.75-.75-.34-.75-.75.34-.75.75-.75zM19 19H5V5h14v14z"/>
  <path fill="none" d="M0 0h24v24H0V0z"/>
</g><g transform="translate(0,5772)"><path fill="#000000" d="M7 15h7v2H7zm0-4h10v2H7zm0-4h10v2H7zm12-4h-4.18C14.4 1.84 13.3 1 12 1c-1.3 0-2.4.84-2.82 2H5c-.14 0-.27.01-.4.04-.39.08-.74.28-1.01.55-.18.18-.33.4-.43.64-.1.23-.16.49-.16.77v14c0 .27.06.54.16.78s.25.45.43.64c.27.27.62.47 1.01.55.13.02.26.03.4.03h14c1.1 0 2-.9 2-2V5c0-1.1-.9-2-2-2zm-7-.25c.41 0 .75.34.75.75s-.34.75-.75.75-.75-.34-.75-.75.34-.75.75-.75zM19 19H5V5h14v14z"/>
</g><g transform="translate(0,2132)"><path fill="#1A73E8" d="M7 15h7v2H7zm0-4h10v2H7zm0-4h10v2H7zm12-4h-4.18C14.4 1.84 13.3 1 12 1c-1.3 0-2.4.84-2.82 2H5c-.14 0-.27.01-.4.04-.39.08-.74.28-1.01.55-.18.18-.33.4-.43.64-.1.23-.16.49-.16.77v14c0 .27.06.54.16.78s.25.45.43.64c.27.27.62.47 1.01.55.13.02.26.03.4.03h14c1.1 0 2-.9 2-2V5c0-1.1-.9-2-2-2zm-7-.25c.41 0 .75.34.75.75s-.34.75-.75.75-.75-.34-.75-.75.34-.75.75-.75zM19 19H5V5h14v14z"/>
</g><g transform="translate(0,4082)"><path fill="#FFFFFF" d="M7 15h7v2H7zm0-4h10v2H7zm0-4h10v2H7zm12-4h-4.18C14.4 1.84 13.3 1 12 1c-1.3 0-2.4.84-2.82 2H5c-.14 0-.27.01-.4.04-.39.08-.74.28-1.01.55-.18.18-.33.4-.43.64-.1.23-.16.49-.16.77v14c0 .27.06.54.16.78s.25.45.43.64c.27.27.62.47 1.01.55.13.02.26.03.4.03h14c1.1 0 2-.9 2-2V5c0-1.1-.9-2-2-2zm-7-.25c.41 0 .75.34.75.75s-.34.75-.75.75-.75-.34-.75-.75.34-.75.75-.75zM19 19H5V5h14v14z"/>
</g><g transform="translate(0,5356)"><path d="M10 16v-1H3.01L3 19c0 1.11.89 2 2 2h14c1.11 0 2-.89 2-2v-4h-7v1h-4zm10-9h-4.01V5l-2-2h-4l-2 2v2H4c-1.1 0-2 .9-2 2v3c0 1.11.89 2 2 2h6v-2h4v2h6c1.1 0 2-.9 2-2V9c0-1.1-.9-2-2-2zm-6 0h-4V5h4v2z"/></g><g transform="translate(0,468)"><path d="M17 12h-5v5h5v-5zM16 1v2H8V1H6v2H5c-1.11 0-1.99.9-1.99 2L3 19c0 1.1.89 2 2 2h14c1.1 0 2-.9 2-2V5c0-1.1-.9-2-2-2h-1V1h-2zm3 18H5V8h14v11z"/>
    <path d="M0 0h24v24H0z" fill="none"/>
</g><g transform="translate(0,5798)"><path d="M17 12h-5v5h5v-5zM16 1v2H8V1H6v2H5c-1.11 0-1.99.9-1.99 2L3 19c0 1.1.89 2 2 2h14c1.1 0 2-.9 2-2V5c0-1.1-.9-2-2-2h-1V1h-2zm3 18H5V8h14v11z" fill="#5F6368"/>
    <path d="M0 0h24v24H0z" fill="none"/>
</g><g transform="translate(0,3874)"><path d="M17 12h-5v5h5v-5zM16 1v2H8V1H6v2H5c-1.11 0-1.99.9-1.99 2L3 19c0 1.1.89 2 2 2h14c1.1 0 2-.9 2-2V5c0-1.1-.9-2-2-2h-1V1h-2zm3 18H5V8h14v11z" fill="#ffffff"/>
    <path d="M0 0h24v24H0z" fill="none"/>
</g><g transform="translate(0,5018)"><path d="M9 16.17L4.83 12l-1.42 1.41L9 19 21 7l-1.41-1.41z" fill="#0F9D58"/>
</g><g transform="translate(0,6838)"><path d="M9 16.17L4.83 12l-1.42 1.41L9 19 21 7l-1.41-1.41z" fill="#1E8E3E"/>
</g><g transform="translate(0,3822)"><path d="M 9.61,14.89 6.5,11.78 5.44,12.84 9.61,17 18.56,8.05 17.5,7 z" fill="#1E8E3E"/></g><g transform="translate(0,3952)"><path fill="#5F6368" d="M19 6.41L17.59 5 12 10.59 6.41 5 5 6.41 10.59 12 5 17.59 6.41 19 12 13.41 17.59 19 19 17.59 13.41 12z"/>
    <path d="M0 0h24v24H0z" fill="none"/>
</g><g transform="translate(0,4264)"><path d="M19 6.41L17.59 5 12 10.59 6.41 5 5 6.41 10.59 12 5 17.59 6.41 19 12 13.41 17.59 19 19 17.59 13.41 12z"/>
    <path d="M0 0h24v24H0z" fill="none"/>
</g><g transform="translate(0,3484)"><path d="M19 6.41L17.59 5 12 10.59 6.41 5 5 6.41 10.59 12 5 17.59 6.41 19 12 13.41 17.59 19 19 17.59 13.41 12z" fill="#DB4437"/>
</g><g transform="translate(0,3224)"><path d="M19 6.41L17.59 5 12 10.59 6.41 5 5 6.41 10.59 12 5 17.59 6.41 19 12 13.41 17.59 19 19 17.59 13.41 12z" fill="#D93025"/>
</g><g transform="translate(0,5512)"><path d="M19 6.41L17.59 5 12 10.59 6.41 5 5 6.41 10.59 12 5 17.59 6.41 19 12 13.41 17.59 19 19 17.59 13.41 12z" fill="#FFFFFF"/>
    <path d="M0 0h24v24H0z" fill="none"/>
</g><g transform="translate(0,6682)"><path fill="#5f6368" d="M17.5 19h-10C4.47 19 2 16.53 2 13.5c0-2.76 2.09-5.09 4.78-5.44C7.83 6.18 9.82 5 12 5c2.97 0 5.45 2.18 5.92 5.02 2.29.21 4.08 2.14 4.08 4.48 0 2.48-2.02 4.5-4.5 4.5zM12 7c-1.59 0-3.03.94-3.67 2.41l-.25.59-.64.01C5.54 10.04 4 11.61 4 13.5 4 15.43 5.57 17 7.5 17h10c1.38 0 2.5-1.12 2.5-2.5S18.88 12 17.5 12H16v-1c0-2.21-1.79-4-4-4zm1.61 2.97l-2.73 2.73-1.48-1.48-1.4 1.4 2.88 2.88 4.13-4.13-1.4-1.4z"/>
  <path fill="none" d="M0 0h24v24H0V0z"/>
</g><g transform="translate(0,2938)"><path fill="#000000" d="M17.5 19h-10C4.47 19 2 16.53 2 13.5c0-2.76 2.09-5.09 4.78-5.44C7.83 6.18 9.82 5 12 5c2.97 0 5.45 2.18 5.92 5.02 2.29.21 4.08 2.14 4.08 4.48 0 2.48-2.02 4.5-4.5 4.5zM12 7c-1.59 0-3.03.94-3.67 2.41l-.25.59-.64.01C5.54 10.04 4 11.61 4 13.5 4 15.43 5.57 17 7.5 17h10c1.38 0 2.5-1.12 2.5-2.5S18.88 12 17.5 12H16v-1c0-2.21-1.79-4-4-4zm1.61 2.97l-2.73 2.73-1.48-1.48-1.4 1.4 2.88 2.88 4.13-4.13-1.4-1.4z"/>
  <path fill="none" d="M0 0h24v24H0V0z"/>
</g><g transform="translate(0,5486)"><path fill="#ffffff" d="M17.5 19h-10C4.47 19 2 16.53 2 13.5c0-2.76 2.09-5.09 4.78-5.44C7.83 6.18 9.82 5 12 5c2.97 0 5.45 2.18 5.92 5.02 2.29.21 4.08 2.14 4.08 4.48 0 2.48-2.02 4.5-4.5 4.5zM12 7c-1.59 0-3.03.94-3.67 2.41l-.25.59-.64.01C5.54 10.04 4 11.61 4 13.5 4 15.43 5.57 17 7.5 17h10c1.38 0 2.5-1.12 2.5-2.5S18.88 12 17.5 12H16v-1c0-2.21-1.79-4-4-4zm1.61 2.97l-2.73 2.73-1.48-1.48-1.4 1.4 2.88 2.88 4.13-4.13-1.4-1.4z"/>
  <path fill="none" d="M0 0h24v24H0V0z"/>
</g><g transform="translate(0,6292)"><path fill="#5f6368" d="M12 7c2.21 0 4 1.79 4 4v1h1.5c1.38 0 2.5 1.12 2.5 2.5 0 .73-.32 1.39-.83 1.84l1.41 1.41c.87-.81 1.42-1.97 1.42-3.25 0-2.34-1.79-4.27-4.08-4.48C17.45 7.18 14.97 5 12 5c-1.17 0-2.28.35-3.22.95l1.46 1.46C10.78 7.15 11.38 7 12 7zm5 10L8.73 8.73 7.29 7.29 2.81 2.81 1.39 4.22l4.16 4.16C3.49 9.18 2 11.18 2 13.5 2 16.53 4.47 19 7.5 19h8.67l3.61 3.61 1.41-1.41-2.4-2.4L17 17zm-9.5 0C5.57 17 4 15.43 4 13.5c0-1.81 1.42-3.31 3.21-3.46L14.17 17H7.5z"/>
  <path fill="none" d="M0 0h24v24H0V0z"/>
</g><g transform="translate(0,1014)"><path fill="#000000" d="M12 7c2.21 0 4 1.79 4 4v1h1.5c1.38 0 2.5 1.12 2.5 2.5 0 .73-.32 1.39-.83 1.84l1.41 1.41c.87-.81 1.42-1.97 1.42-3.25 0-2.34-1.79-4.27-4.08-4.48C17.45 7.18 14.97 5 12 5c-1.17 0-2.28.35-3.22.95l1.46 1.46C10.78 7.15 11.38 7 12 7zm5 10L8.73 8.73 7.29 7.29 2.81 2.81 1.39 4.22l4.16 4.16C3.49 9.18 2 11.18 2 13.5 2 16.53 4.47 19 7.5 19h8.67l3.61 3.61 1.41-1.41-2.4-2.4L17 17zm-9.5 0C5.57 17 4 15.43 4 13.5c0-1.81 1.42-3.31 3.21-3.46L14.17 17H7.5z"/>
  <path fill="none" d="M0 0h24v24H0V0z"/>
</g><g transform="translate(0,4706)"><path fill="#ffffff" d="M12 7c2.21 0 4 1.79 4 4v1h1.5c1.38 0 2.5 1.12 2.5 2.5 0 .73-.32 1.39-.83 1.84l1.41 1.41c.87-.81 1.42-1.97 1.42-3.25 0-2.34-1.79-4.27-4.08-4.48C17.45 7.18 14.97 5 12 5c-1.17 0-2.28.35-3.22.95l1.46 1.46C10.78 7.15 11.38 7 12 7zm5 10L8.73 8.73 7.29 7.29 2.81 2.81 1.39 4.22l4.16 4.16C3.49 9.18 2 11.18 2 13.5 2 16.53 4.47 19 7.5 19h8.67l3.61 3.61 1.41-1.41-2.4-2.4L17 17zm-9.5 0C5.57 17 4 15.43 4 13.5c0-1.81 1.42-3.31 3.21-3.46L14.17 17H7.5z"/>
  <path fill="none" d="M0 0h24v24H0V0z"/>
</g><g transform="translate(0,7202)"><path fill="#5f6368" d="M17.5,19h-10C4.47,19,2,16.53,2,13.5c0-2.76,2.09-5.09,4.78-5.44C7.83,6.18,9.82,5,12,5c2.97,0,5.45,2.18,5.92,5.02 C20.21,10.23,22,12.16,22,14.5C22,16.98,19.98,19,17.5,19z M12,7c-1.59,0-3.03,0.94-3.67,2.41L8.08,10l-0.64,0.01 C5.54,10.04,4,11.61,4,13.5C4,15.43,5.57,17,7.5,17h10c1.38,0,2.5-1.12,2.5-2.5S18.88,12,17.5,12H16v-1C16,8.79,14.21,7,12,7z"/>
  <path fill="none" d="M0 0h24v24H0V0z"/>
</g><g transform="translate(0,4290)"><path fill="#000000" d="M17.5,19h-10C4.47,19,2,16.53,2,13.5c0-2.76,2.09-5.09,4.78-5.44C7.83,6.18,9.82,5,12,5c2.97,0,5.45,2.18,5.92,5.02 C20.21,10.23,22,12.16,22,14.5C22,16.98,19.98,19,17.5,19z M12,7c-1.59,0-3.03,0.94-3.67,2.41L8.08,10l-0.64,0.01 C5.54,10.04,4,11.61,4,13.5C4,15.43,5.57,17,7.5,17h10c1.38,0,2.5-1.12,2.5-2.5S18.88,12,17.5,12H16v-1C16,8.79,14.21,7,12,7z"/>
  <path fill="none" d="M0 0h24v24H0V0z"/>
</g><g transform="translate(0,1248)"><path fill="#ffffff" d="M17.5,19h-10C4.47,19,2,16.53,2,13.5c0-2.76,2.09-5.09,4.78-5.44C7.83,6.18,9.82,5,12,5c2.97,0,5.45,2.18,5.92,5.02 C20.21,10.23,22,12.16,22,14.5C22,16.98,19.98,19,17.5,19z M12,7c-1.59,0-3.03,0.94-3.67,2.41L8.08,10l-0.64,0.01 C5.54,10.04,4,11.61,4,13.5C4,15.43,5.57,17,7.5,17h10c1.38,0,2.5-1.12,2.5-2.5S18.88,12,17.5,12H16v-1C16,8.79,14.21,7,12,7z"/>
  <path fill="none" d="M0 0h24v24H0V0z"/>
</g><g transform="translate(0,7228)"><path fill="none" d="M0 0h24v24H0V0z"/>
    <path fill="#5F6368" d="M9.4 16.6L4.8 12l4.6-4.6L8 6l-6 6 6 6 1.4-1.4zm5.2 0l4.6-4.6-4.6-4.6L16 6l6 6-6 6-1.4-1.4z"/>
</g><g transform="translate(0,2626)"><path fill="none" d="M0 0h24v24H0V0z"/>
    <path d="M9.4 16.6L4.8 12l4.6-4.6L8 6l-6 6 6 6 1.4-1.4zm5.2 0l4.6-4.6-4.6-4.6L16 6l6 6-6 6-1.4-1.4z"/>
</g><g transform="translate(0,4550)"><path fill="none" d="M0 0h24v24H0V0z"/>
    <path d="M9.4 16.6L4.8 12l4.6-4.6L8 6l-6 6 6 6 1.4-1.4zm5.2 0l4.6-4.6-4.6-4.6L16 6l6 6-6 6-1.4-1.4z" fill="#ffffff"/>
</g><g transform="translate(0,3510)"><path fill="#5F6368" d="M18 21H4V7H2v14c0 1.1.9 2 2 2h14v-2zm3-4V3c0-1.1-.9-2-2-2H8c-1.1 0-2 .9-2 2v14c0 1.1.9 2 2 2h11c1.1 0 2-.9 2-2zm-2 0H8V3h11v14z"/>
</g><g transform="translate(0,5122)"><path fill="#000000" d="M18 21H4V7H2v14c0 1.1.9 2 2 2h14v-2zm3-4V3c0-1.1-.9-2-2-2H8c-1.1 0-2 .9-2 2v14c0 1.1.9 2 2 2h11c1.1 0 2-.9 2-2zm-2 0H8V3h11v14z"/>
</g><g transform="translate(0,676)"><path fill="#1A73E8" d="M18 21H4V7H2v14c0 1.1.9 2 2 2h14v-2zm3-4V3c0-1.1-.9-2-2-2H8c-1.1 0-2 .9-2 2v14c0 1.1.9 2 2 2h11c1.1 0 2-.9 2-2zm-2 0H8V3h11v14z"/>
</g><g transform="translate(0,936)"><path fill="#FFFFFF" d="M18 21H4V7H2v14c0 1.1.9 2 2 2h14v-2zm3-4V3c0-1.1-.9-2-2-2H8c-1.1 0-2 .9-2 2v14c0 1.1.9 2 2 2h11c1.1 0 2-.9 2-2zm-2 0H8V3h11v14z"/>
</g><g transform="translate(0,7332)"><path d="M0 0h24v24H0z" fill="none"/>
    <path d="M16 1H4c-1.1 0-2 .9-2 2v14h2V3h12V1zm3 4H8c-1.1 0-2 .9-2 2v14c0 1.1.9 2 2 2h11c1.1 0 2-.9 2-2V7c0-1.1-.9-2-2-2zm0 16H8V7h11v14z"/>
</g><g transform="translate(0,5434)"><path d="M0 0h24v24H0z" fill="none"/>
    <path d="M16 1H4c-1.1 0-2 .9-2 2v14h2V3h12V1zm3 4H8c-1.1 0-2 .9-2 2v14c0 1.1.9 2 2 2h11c1.1 0 2-.9 2-2V7c0-1.1-.9-2-2-2zm0 16H8V7h11v14z" fill="#ffffff"/>
</g><g transform="translate(0,2288)"><path fill="#5F6368" d="M15 4V3H9v1H4v2h1v13c0 1.1.9 2 2 2h10c1.1 0 2-.9 2-2V6h1V4h-5zm2 15H7V6h10v13zM9 8h2v9H9zm4 0h2v9h-2z"/>
</g><g transform="translate(0,5408)"><path fill="#000000" d="M15 4V3H9v1H4v2h1v13c0 1.1.9 2 2 2h10c1.1 0 2-.9 2-2V6h1V4h-5zm2 15H7V6h10v13zM9 8h2v9H9zm4 0h2v9h-2z"/>
</g><g transform="translate(0,4862)"><path fill="#FFFFFF" d="M15 4V3H9v1H4v2h1v13c0 1.1.9 2 2 2h10c1.1 0 2-.9 2-2V6h1V4h-5zm2 15H7V6h10v13zM9 8h2v9H9zm4 0h2v9h-2z"/>
</g><g transform="translate(0,4888)"><path d="M19 9h-4V3H9v6H5l7 7 7-7zM5 18v2h14v-2H5z"/>
    <path d="M0 0h24v24H0z" fill="none"/>
</g><g transform="translate(0,130)"><path d="M19 9h-4V3H9v6H5l7 7 7-7zM5 18v2h14v-2H5z" fill="#ffffff"/>
    <path d="M0 0h24v24H0z" fill="none"/>
</g><g transform="translate(0,5278)"><circle cx="6.5" cy="9.5" r="1.5"/>
  <circle cx="6.5" cy="14.5" r="1.5"/>
  <circle cx="12.5" cy="9.5" r="1.5"/>
  <circle cx="12.5" cy="14.5" r="1.5"/>
  <circle cx="18.5" cy="9.5" r="1.5"/>
  <circle cx="18.5" cy="14.5" r="1.5"/>
</g><g transform="translate(0,6344)"><circle cx="6.5" cy="9.5" r="1.5" fill="#ffffff"/>
  <circle cx="6.5" cy="14.5" r="1.5" fill="#ffffff"/>
  <circle cx="12.5" cy="9.5" r="1.5" fill="#ffffff"/>
  <circle cx="12.5" cy="14.5" r="1.5" fill="#ffffff"/>
  <circle cx="18.5" cy="9.5" r="1.5" fill="#ffffff"/>
  <circle cx="18.5" cy="14.5" r="1.5" fill="#ffffff"/>
</g><g transform="translate(0,1508)"><path d="M3 17.25V21h3.75L17.81 9.94l-3.75-3.75L3 17.25zM20.71 7.04c.39-.39.39-1.02 0-1.41l-2.34-2.34c-.39-.39-1.02-.39-1.41 0l-1.83 1.83 3.75 3.75 1.83-1.83z"/>
    <path d="M0 0h24v24H0z" fill="none"/>
</g><g transform="translate(0,3172)"><path d="M3 17.25V21h3.75L17.81 9.94l-3.75-3.75L3 17.25zM20.71 7.04c.39-.39.39-1.02 0-1.41l-2.34-2.34c-.39-.39-1.02-.39-1.41 0l-1.83 1.83 3.75 3.75 1.83-1.83z" fill="#ffffff"/>
    <path d="M0 0h24v24H0z" fill="none"/>
</g><g transform="translate(0,3796)"><path fill="#5F6368" d="M20 4H4c-1.1 0-2 .9-2 2v12c0 1.1.9 2 2 2h16c1.1 0 2-.9 2-2V6c0-1.1-.9-2-2-2zm-.8 2L12 10.8 4.8 6h14.4zM4 18V7.87l8 5.33 8-5.33V18H4z"/>
</g><g transform="translate(0,4004)"><path fill="#000000" d="M20 4H4c-1.1 0-2 .9-2 2v12c0 1.1.9 2 2 2h16c1.1 0 2-.9 2-2V6c0-1.1-.9-2-2-2zm-.8 2L12 10.8 4.8 6h14.4zM4 18V7.87l8 5.33 8-5.33V18H4z"/>
</g><g transform="translate(0,1222)"><path fill="#FFFFFF" d="M20 4H4c-1.1 0-2 .9-2 2v12c0 1.1.9 2 2 2h16c1.1 0 2-.9 2-2V6c0-1.1-.9-2-2-2zm-.8 2L12 10.8 4.8 6h14.4zM4 18V7.87l8 5.33 8-5.33V18H4z"/>
</g><g transform="translate(0,1430)"><path fill="none" d="M0 0h24v24H0V0z"/>
    <path d="M9.4 16.6L4.8 12l4.6-4.6L8 6l-6 6 6 6 1.4-1.4zm5.2 0l4.6-4.6-4.6-4.6L16 6l6 6-6 6-1.4-1.4z"/>
</g><g transform="translate(0,390)"><path fill="none" d="M0 0h24v24H0V0z"/>
    <path d="M9.4 16.6L4.8 12l4.6-4.6L8 6l-6 6 6 6 1.4-1.4zm5.2 0l4.6-4.6-4.6-4.6L16 6l6 6-6 6-1.4-1.4z" fill="#ffffff"/>
</g><g transform="translate(0,26)"><path fill="#000000" d="M11 15h2v2h-2v-2zm0-8h2v6h-2V7zm.99-5C6.47 2 2 6.48 2 12s4.47 10 9.99 10C17.52 22 22 17.52 22 12S17.52 2 11.99 2zM12 20c-4.42 0-8-3.58-8-8s3.58-8 8-8 8 3.58 8 8-3.58 8-8 8z"/>
  <path fill="none" d="M0 0h24v24H0V0z"/>
</g><g transform="translate(0,1690)"><path d="M11 15h2v2h-2zm0-8h2v6h-2zm.99-5C6.47 2 2 6.48 2 12s4.47 10 9.99 10C17.52 22 22 17.52 22 12S17.52 2 11.99 2zM12 20c-4.42 0-8-3.58-8-8s3.58-8 8-8 8 3.58 8 8-3.58 8-8 8z" fill="#FF5722"/>
</g><g transform="translate(0,4394)"><path fill="#d93025" d="M11 15h2v2h-2v-2zm0-8h2v6h-2V7zm.99-5C6.47 2 2 6.48 2 12s4.47 10 9.99 10C17.52 22 22 17.52 22 12S17.52 2 11.99 2zM12 20c-4.42 0-8-3.58-8-8s3.58-8 8-8 8 3.58 8 8-3.58 8-8 8z"/>
  <path fill="none" d="M0 0h24v24H0V0z"/>
</g><g transform="translate(0,52)"><path fill="#ffffff" d="M11 15h2v2h-2v-2zm0-8h2v6h-2V7zm.99-5C6.47 2 2 6.48 2 12s4.47 10 9.99 10C17.52 22 22 17.52 22 12S17.52 2 11.99 2zM12 20c-4.42 0-8-3.58-8-8s3.58-8 8-8 8 3.58 8 8-3.58 8-8 8z"/>
  <path fill="none" d="M0 0h24v24H0V0z"/>
</g><g transform="translate(0,6890)"><path d="M12 8l-6 6 1.41 1.41L12 10.83l4.59 4.58L18 14z"/>
    <path d="M0 0h24v24H0z" fill="none"/>
</g><g transform="translate(0,6448)"><path d="M12 8l-6 6 1.41 1.41L12 10.83l4.59 4.58L18 14z" fill="#1A73E8"/>
    <path d="M0 0h24v24H0z" fill="none"/>
</g><g transform="translate(0,1196)"><path d="M12 8l-6 6 1.41 1.41L12 10.83l4.59 4.58L18 14z" fill="#DB4437"/>
    <path d="M0 0h24v24H0z" fill="none"/>
</g><g transform="translate(0,5174)"><path d="M12 8l-6 6 1.41 1.41L12 10.83l4.59 4.58L18 14z" fill="#ffffff"/>
    <path d="M0 0h24v24H0z" fill="none"/>
</g><g transform="translate(0,1482)"><path d="M16.59 8.59L12 13.17 7.41 8.59 6 10l6 6 6-6z"/>
    <path d="M0 0h24v24H0z" fill="none"/>
</g><g transform="translate(0,7072)"><path d="M16.59 8.59L12 13.17 7.41 8.59 6 10l6 6 6-6z" fill="#1A73E8"/>
    <path d="M0 0h24v24H0z" fill="none"/>
</g><g transform="translate(0,5148)"><path d="M16.59 8.59L12 13.17 7.41 8.59 6 10l6 6 6-6z" fill="#DB4437"/>
    <path d="M0 0h24v24H0z" fill="none"/>
</g><g transform="translate(0,1118)"><path d="M16.59 8.59L12 13.17 7.41 8.59 6 10l6 6 6-6z" fill="#ffffff"/>
    <path d="M0 0h24v24H0z" fill="none"/>
</g><g transform="translate(0,4472)"><path d="M0 0h24v24H0z" fill="none"/>
    <path d="M20.5 11H19V7c0-1.1-.9-2-2-2h-4V3.5C13 2.12 11.88 1 10.5 1S8 2.12 8 3.5V5H4c-1.1 0-1.99.9-1.99 2v3.8H3.5c1.49 0 2.7 1.21 2.7 2.7s-1.21 2.7-2.7 2.7H2V20c0 1.1.9 2 2 2h3.8v-1.5c0-1.49 1.21-2.7 2.7-2.7 1.49 0 2.7 1.21 2.7 2.7V22H17c1.1 0 2-.9 2-2v-4h1.5c1.38 0 2.5-1.12 2.5-2.5S21.88 11 20.5 11z"/>
</g><g transform="translate(0,3900)"><path fill="#5F6368" d="M18 20h-2.12c-.68-1.75-2.39-3-4.38-3s-3.7 1.25-4.38 3H5v-2.12c1.75-.68 3-2.39 3-4.38 0-1.99-1.24-3.7-2.99-4.38L5 7h13v13zM11.5 2.5C10.12 2.5 9 3.62 9 5H5c-1.1 0-1.99.9-1.99 2v3.8h.29c1.49 0 2.7 1.21 2.7 2.7s-1.21 2.7-2.7 2.7H3V20c0 1.1.9 2 2 2h3.8v-.3c0-1.49 1.21-2.7 2.7-2.7s2.7 1.21 2.7 2.7v.3H18c1.1 0 2-.9 2-2v-4c1.38 0 2.5-1.12 2.5-2.5S21.38 11 20 11V7c0-1.1-.9-2-2-2h-4c0-1.38-1.12-2.5-2.5-2.5z"/>
</g><g transform="translate(0,1092)"><path fill="#000000" d="M18 20h-2.12c-.68-1.75-2.39-3-4.38-3s-3.7 1.25-4.38 3H5v-2.12c1.75-.68 3-2.39 3-4.38 0-1.99-1.24-3.7-2.99-4.38L5 7h13v13zM11.5 2.5C10.12 2.5 9 3.62 9 5H5c-1.1 0-1.99.9-1.99 2v3.8h.29c1.49 0 2.7 1.21 2.7 2.7s-1.21 2.7-2.7 2.7H3V20c0 1.1.9 2 2 2h3.8v-.3c0-1.49 1.21-2.7 2.7-2.7s2.7 1.21 2.7 2.7v.3H18c1.1 0 2-.9 2-2v-4c1.38 0 2.5-1.12 2.5-2.5S21.38 11 20 11V7c0-1.1-.9-2-2-2h-4c0-1.38-1.12-2.5-2.5-2.5z"/>
</g><g transform="translate(0,4940)"><path fill="#FFFFFF" d="M18 20h-2.12c-.68-1.75-2.39-3-4.38-3s-3.7 1.25-4.38 3H5v-2.12c1.75-.68 3-2.39 3-4.38 0-1.99-1.24-3.7-2.99-4.38L5 7h13v13zM11.5 2.5C10.12 2.5 9 3.62 9 5H5c-1.1 0-1.99.9-1.99 2v3.8h.29c1.49 0 2.7 1.21 2.7 2.7s-1.21 2.7-2.7 2.7H3V20c0 1.1.9 2 2 2h3.8v-.3c0-1.49 1.21-2.7 2.7-2.7s2.7 1.21 2.7 2.7v.3H18c1.1 0 2-.9 2-2v-4c1.38 0 2.5-1.12 2.5-2.5S21.38 11 20 11V7c0-1.1-.9-2-2-2h-4c0-1.38-1.12-2.5-2.5-2.5z"/>
</g><g transform="translate(0,2028)"><path d="M0 0h24v24H0z" fill="none"/>
    <path d="M20.5 11H19V7c0-1.1-.9-2-2-2h-4V3.5C13 2.12 11.88 1 10.5 1S8 2.12 8 3.5V5H4c-1.1 0-1.99.9-1.99 2v3.8H3.5c1.49 0 2.7 1.21 2.7 2.7s-1.21 2.7-2.7 2.7H2V20c0 1.1.9 2 2 2h3.8v-1.5c0-1.49 1.21-2.7 2.7-2.7 1.49 0 2.7 1.21 2.7 2.7V22H17c1.1 0 2-.9 2-2v-4h1.5c1.38 0 2.5-1.12 2.5-2.5S21.88 11 20.5 11z" fill="#FFFFFF"/>
</g><g transform="translate(0,4316)"><path d="M0 0h24v24H0z" fill="none"/>
    <path d="M20 2H4c-1.1 0-1.99.9-1.99 2L2 22l4-4h14c1.1 0 2-.9 2-2V4c0-1.1-.9-2-2-2zm-7 12h-2v-2h2v2zm0-4h-2V6h2v4z"/>
</g><g transform="translate(0,2834)"><path fill="#5F6368" d="M20 2H4c-1.1 0-1.99.9-1.99 2L2 22l4-4h14c1.1 0 2-.9 2-2V4c0-1.1-.9-2-2-2zm0 14H5.17l-.59.59-.58.58V4h16v12zm-9-4h2v2h-2zm0-6h2v4h-2z"/>
</g><g transform="translate(0,3770)"><path fill="#000000" d="M20 2H4c-1.1 0-1.99.9-1.99 2L2 22l4-4h14c1.1 0 2-.9 2-2V4c0-1.1-.9-2-2-2zm0 14H5.17l-.59.59-.58.58V4h16v12zm-9-4h2v2h-2zm0-6h2v4h-2z"/>
</g><g transform="translate(0,3536)"><path fill="#FFFFFF" d="M20 2H4c-1.1 0-1.99.9-1.99 2L2 22l4-4h14c1.1 0 2-.9 2-2V4c0-1.1-.9-2-2-2zm0 14H5.17l-.59.59-.58.58V4h16v12zm-9-4h2v2h-2zm0-6h2v4h-2z"/>
</g><g transform="translate(0,1898)"><path d="M0 0h24v24H0z" fill="none"/>
    <path d="M20 2H4c-1.1 0-1.99.9-1.99 2L2 22l4-4h14c1.1 0 2-.9 2-2V4c0-1.1-.9-2-2-2zm-7 12h-2v-2h2v2zm0-4h-2V6h2v4z" fill="#ffffff"/>
</g><g transform="translate(0,1638)"><path fill="#5F6368" d="M4 15h2v3h12v-3h2v3c0 1.1-.9 2-2 2H6c-1.1 0-2-.9-2-2m11.59-8.41L13 12.17V4h-2v8.17L8.41 9.59 7 11l5 5 5-5-1.41-1.41z"/>
</g><g transform="translate(0,7176)"><path fill="#000000" d="M4 15h2v3h12v-3h2v3c0 1.1-.9 2-2 2H6c-1.1 0-2-.9-2-2m11.59-8.41L13 12.17V4h-2v8.17L8.41 9.59 7 11l5 5 5-5-1.41-1.41z"/>
</g><g transform="translate(0,7306)"><path fill="#FFFFFF" d="M4 15h2v3h12v-3h2v3c0 1.1-.9 2-2 2H6c-1.1 0-2-.9-2-2m11.59-8.41L13 12.17V4h-2v8.17L8.41 9.59 7 11l5 5 5-5-1.41-1.41z"/>
</g><g transform="translate(0,832)"><path d="M10 4H4c-1.1 0-1.99.9-1.99 2L2 18c0 1.1.9 2 2 2h16c1.1 0 2-.9 2-2V8c0-1.1-.9-2-2-2h-8l-2-2z"/>
    <path d="M0 0h24v24H0z" fill="none"/>
</g><g transform="translate(0,6058)"><path fill="#5F6368" d="M20 6h-8l-2-2H4c-1.1 0-1.99.9-1.99 2L2 18c0 1.1.9 2 2 2h16c1.1 0 2-.9 2-2V8c0-1.1-.9-2-2-2zm0 12H4V8h16v10z"/>
</g><g transform="translate(0,6708)"><path fill="#000000" d="M20 6h-8l-2-2H4c-1.1 0-1.99.9-1.99 2L2 18c0 1.1.9 2 2 2h16c1.1 0 2-.9 2-2V8c0-1.1-.9-2-2-2zm0 12H4V8h16v10z"/>
</g><g transform="translate(0,1586)"><path fill="#FFFFFF" d="M20 6h-8l-2-2H4c-1.1 0-1.99.9-1.99 2L2 18c0 1.1.9 2 2 2h16c1.1 0 2-.9 2-2V8c0-1.1-.9-2-2-2zm0 12H4V8h16v10z"/>
</g><g transform="translate(0,338)"><path d="M10 4H4c-1.1 0-1.99.9-1.99 2L2 18c0 1.1.9 2 2 2h16c1.1 0 2-.9 2-2V8c0-1.1-.9-2-2-2h-8l-2-2z" fill="#FFFFFF"/>
    <path d="M0 0h24v24H0z" fill="none"/>
</g><g transform="translate(0,5044)"><path d="M19 3h-4.18C14.4 1.84 13.3 1 12 1c-1.3 0-2.4.84-2.82 2H5c-1.1 0-2 .9-2 2v14c0 1.1.9 2 2 2h14c1.1 0 2-.9 2-2V5c0-1.1-.9-2-2-2zm-7 0c.55 0 1 .45 1 1s-.45 1-1 1-1-.45-1-1 .45-1 1-1zm-2 14l-4-4 1.41-1.41L10 14.17l6.59-6.59L18 9l-8 8z"/></g><g transform="translate(0,4420)"><path d="M0 0h24v24H0z" fill="none"/>
  <path d="M19 3h-4.18C14.4 1.84 13.3 1 12 1c-1.3 0-2.4.84-2.82 2H5c-1.1 0-2 .9-2 2v14c0 1.1.9 2 2 2h14c1.1 0 2-.9 2-2V5c0-1.1-.9-2-2-2zm-7 0c.55 0 1 .45 1 1s-.45 1-1 1-1-.45-1-1 .45-1 1-1zm-2 14l-4-4 1.41-1.41L10 14.17l6.59-6.59L18 9l-8 8z" fill="#FFFFFF"/>
</g><g transform="translate(0,364)"><path d="M0 0h24v24H0z" fill="none"/>
    <path d="M19 3h-4.18C14.4 1.84 13.3 1 12 1c-1.3 0-2.4.84-2.82 2H5c-1.1 0-2 .9-2 2v14c0 1.1.9 2 2 2h14c1.1 0 2-.9 2-2V5c0-1.1-.9-2-2-2zm-6 15h-2v-2h2v2zm0-4h-2V8h2v6zm-1-9c-.55 0-1-.45-1-1s.45-1 1-1 1 .45 1 1-.45 1-1 1z"/>
</g><g transform="translate(0,7098)"><path d="M0 0h24v24H0z" fill="none"/>
    <path d="M19 3h-4.18C14.4 1.84 13.3 1 12 1c-1.3 0-2.4.84-2.82 2H5c-1.1 0-2 .9-2 2v14c0 1.1.9 2 2 2h14c1.1 0 2-.9 2-2V5c0-1.1-.9-2-2-2zm-6 15h-2v-2h2v2zm0-4h-2V8h2v6zm-1-9c-.55 0-1-.45-1-1s.45-1 1-1 1 .45 1 1-.45 1-1 1z" fill="#FFFFFF"/>
</g><g transform="translate(0,1768)"><path d="M21 10.12h-6.78l2.74-2.82c-2.73-2.7-7.15-2.8-9.88-.1-2.73 2.71-2.73 7.08 0 9.79 2.73 2.71 7.15 2.71 9.88 0C18.32 15.65 19 14.08 19 12.1h2c0 1.98-.88 4.55-2.64 6.29-3.51 3.48-9.21 3.48-12.72 0-3.5-3.47-3.53-9.11-.02-12.58 3.51-3.47 9.14-3.47 12.65 0L21 3v7.12zM12.5 8v4.25l3.5 2.08-.72 1.21L11 13V8h1.5z"/></g><g transform="translate(0,2756)"><path d="M21 10.12h-6.78l2.74-2.82c-2.73-2.7-7.15-2.8-9.88-.1-2.73 2.71-2.73 7.08 0 9.79 2.73 2.71 7.15 2.71 9.88 0C18.32 15.65 19 14.08 19 12.1h2c0 1.98-.88 4.55-2.64 6.29-3.51 3.48-9.21 3.48-12.72 0-3.5-3.47-3.53-9.11-.02-12.58 3.51-3.47 9.14-3.47 12.65 0L21 3v7.12zM12.5 8v4.25l3.5 2.08-.72 1.21L11 13V8h1.5z" fill="#FFFFFF"/>
</g><g transform="translate(0,6552)"><path fill="#5F6368" d="M7 13.75c-2 0-6 1.17-6 3.5V19h12v-1.75c0-2.33-4-3.5-6-3.5zM3.18 17c.57-.54 2.33-1.25 3.82-1.25 1.5 0 3.26.72 3.82 1.25H3.18zM7 12.5c1.66 0 3-1.34 3-3s-1.34-3-3-3-3 1.34-3 3 1.34 3 3 3zm0-4c.55 0 1 .45 1 1s-.45 1-1 1-1-.45-1-1 .45-1 1-1zm6 4c-.62 0-1.2-.19-1.68-.51.43-.74.68-1.58.68-2.49 0-.91-.26-1.75-.69-2.48.48-.33 1.06-.52 1.69-.52 1.66 0 3 1.34 3 3s-1.34 3-3 3zm6 4.75V19h-4v-1.75c0-1.49-.76-2.64-1.86-3.5 2.04.06 5.86 1.22 5.86 3.5zM23 9v2h-2v2h-2v-2h-2V9h2V7h2v2h2z"/>
</g><g transform="translate(0,7358)"><path fill="#000000" d="M7 13.75c-2 0-6 1.17-6 3.5V19h12v-1.75c0-2.33-4-3.5-6-3.5zM3.18 17c.57-.54 2.33-1.25 3.82-1.25 1.5 0 3.26.72 3.82 1.25H3.18zM7 12.5c1.66 0 3-1.34 3-3s-1.34-3-3-3-3 1.34-3 3 1.34 3 3 3zm0-4c.55 0 1 .45 1 1s-.45 1-1 1-1-.45-1-1 .45-1 1-1zm6 4c-.62 0-1.2-.19-1.68-.51.43-.74.68-1.58.68-2.49 0-.91-.26-1.75-.69-2.48.48-.33 1.06-.52 1.69-.52 1.66 0 3 1.34 3 3s-1.34 3-3 3zm6 4.75V19h-4v-1.75c0-1.49-.76-2.64-1.86-3.5 2.04.06 5.86 1.22 5.86 3.5zM23 9v2h-2v2h-2v-2h-2V9h2V7h2v2h2z"/>
</g><g transform="translate(0,4524)"><path fill="#FFFFFF" d="M7 13.75c-2 0-6 1.17-6 3.5V19h12v-1.75c0-2.33-4-3.5-6-3.5zM3.18 17c.57-.54 2.33-1.25 3.82-1.25 1.5 0 3.26.72 3.82 1.25H3.18zM7 12.5c1.66 0 3-1.34 3-3s-1.34-3-3-3-3 1.34-3 3 1.34 3 3 3zm0-4c.55 0 1 .45 1 1s-.45 1-1 1-1-.45-1-1 .45-1 1-1zm6 4c-.62 0-1.2-.19-1.68-.51.43-.74.68-1.58.68-2.49 0-.91-.26-1.75-.69-2.48.48-.33 1.06-.52 1.69-.52 1.66 0 3 1.34 3 3s-1.34 3-3 3zm6 4.75V19h-4v-1.75c0-1.49-.76-2.64-1.86-3.5 2.04.06 5.86 1.22 5.86 3.5zM23 9v2h-2v2h-2v-2h-2V9h2V7h2v2h2z"/>
</g><g transform="translate(0,4186)"><path d="M0 0h24v24H0z" fill="none"/>
    <path d="M12 2C6.48 2 2 6.48 2 12s4.48 10 10 10 10-4.48 10-10S17.52 2 12 2zm1 17h-2v-2h2v2zm2.07-7.75l-.9.92C13.45 12.9 13 13.5 13 15h-2v-.5c0-1.1.45-2.1 1.17-2.83l1.24-1.26c.37-.36.59-.86.59-1.41 0-1.1-.9-2-2-2s-2 .9-2 2H8c0-2.21 1.79-4 4-4s4 1.79 4 4c0 .88-.36 1.68-.93 2.25z"/>
</g><g transform="translate(0,1534)"><path fill="#5F6368" d="M11 18h2v-2h-2v2zm1-16C6.48 2 2 6.48 2 12s4.48 10 10 10 10-4.48 10-10S17.52 2 12 2zm0 18c-4.41 0-8-3.59-8-8s3.59-8 8-8 8 3.59 8 8-3.59 8-8 8zm0-14c-2.21 0-4 1.79-4 4h2c0-1.1.9-2 2-2s2 .9 2 2c0 2-3 1.75-3 5h2c0-2.25 3-2.5 3-5 0-2.21-1.79-4-4-4z"/>
</g><g transform="translate(0,6994)"><path fill="#000000" d="M11 18h2v-2h-2v2zm1-16C6.48 2 2 6.48 2 12s4.48 10 10 10 10-4.48 10-10S17.52 2 12 2zm0 18c-4.41 0-8-3.59-8-8s3.59-8 8-8 8 3.59 8 8-3.59 8-8 8zm0-14c-2.21 0-4 1.79-4 4h2c0-1.1.9-2 2-2s2 .9 2 2c0 2-3 1.75-3 5h2c0-2.25 3-2.5 3-5 0-2.21-1.79-4-4-4z"/>
</g><g transform="translate(0,3328)"><path fill="#FFFFFF" d="M11 18h2v-2h-2v2zm1-16C6.48 2 2 6.48 2 12s4.48 10 10 10 10-4.48 10-10S17.52 2 12 2zm0 18c-4.41 0-8-3.59-8-8s3.59-8 8-8 8 3.59 8 8-3.59 8-8 8zm0-14c-2.21 0-4 1.79-4 4h2c0-1.1.9-2 2-2s2 .9 2 2c0 2-3 1.75-3 5h2c0-2.25 3-2.5 3-5 0-2.21-1.79-4-4-4z"/>
</g><g transform="translate(0,3978)"><path d="M0 0h24v24H0z" fill="none"/>
    <path d="M12 2C6.48 2 2 6.48 2 12s4.48 10 10 10 10-4.48 10-10S17.52 2 12 2zm1 17h-2v-2h2v2zm2.07-7.75l-.9.92C13.45 12.9 13 13.5 13 15h-2v-.5c0-1.1.45-2.1 1.17-2.83l1.24-1.26c.37-.36.59-.86.59-1.41 0-1.1-.9-2-2-2s-2 .9-2 2H8c0-2.21 1.79-4 4-4s4 1.79 4 4c0 .88-.36 1.68-.93 2.25z" fill="#ffffff"/>
</g><g transform="translate(0,5226)"><path d="M0 0h24v24H0z" fill="none"/>
    <path d="M21 19V5c0-1.1-.9-2-2-2H5c-1.1 0-2 .9-2 2v14c0 1.1.9 2 2 2h14c1.1 0 2-.9 2-2zM8.5 13.5l2.5 3.01L14.5 12l4.5 6H5l3.5-4.5z"/>
</g><g transform="translate(0,2002)"><path fill="#5F6368" d="M19 3H5c-1.1 0-2 .9-2 2v14c0 1.1.9 2 2 2h14c1.1 0 2-.9 2-2V5c0-1.1-.9-2-2-2zm0 16H5V5h14v14zm-5-7l-3 3.72L9 13l-3 4h12l-4-5z"/>
</g><g transform="translate(0,3562)"><path fill="#000000" d="M19 3H5c-1.1 0-2 .9-2 2v14c0 1.1.9 2 2 2h14c1.1 0 2-.9 2-2V5c0-1.1-.9-2-2-2zm0 16H5V5h14v14zm-5-7l-3 3.72L9 13l-3 4h12l-4-5z"/>
</g><g transform="translate(0,2054)"><path fill="#FFFFFF" d="M19 3H5c-1.1 0-2 .9-2 2v14c0 1.1.9 2 2 2h14c1.1 0 2-.9 2-2V5c0-1.1-.9-2-2-2zm0 16H5V5h14v14zm-5-7l-3 3.72L9 13l-3 4h12l-4-5z"/>
</g><g transform="translate(0,2158)"><path d="M0 0h24v24H0z" fill="none"/>
    <path d="M21 19V5c0-1.1-.9-2-2-2H5c-1.1 0-2 .9-2 2v14c0 1.1.9 2 2 2h14c1.1 0 2-.9 2-2zM8.5 13.5l2.5 3.01L14.5 12l4.5 6H5l3.5-4.5z" fill="#ffffff"/>
</g><g transform="translate(0,7124)"><path d="M6,17 L6,20 L18,20 L18,9 L13,9 L13,4 L6,4 L6,11 L4,11 L4,4 C4,2.9 4.9,2 6,2 L14,2 L20,8 L20,20 C20,21.1 19.1,22 18,22 L5.99,22 C4.89,22 4,21.1 4,20 L4,17 L6,17 Z" id="Shape" fill="#000000" fill-rule="nonzero"/>
  <polygon id="Path" fill="#000000" fill-rule="nonzero" transform="translate(9.500000, 14.000000) rotate(-270.000000) translate(-9.500000, -14.000000) " points="9.5 8.5 6.5 12.5 8.5 12.5 8.5 19.5 10.5 19.5 10.5 12.5 12.5 12.5"/>
</g><g transform="translate(0,2912)"><path d="M6,17 L6,20 L18,20 L18,9 L13,9 L13,4 L6,4 L6,11 L4,11 L4,4 C4,2.9 4.9,2 6,2 L14,2 L20,8 L20,20 C20,21.1 19.1,22 18,22 L5.99,22 C4.89,22 4,21.1 4,20 L4,17 L6,17 Z" id="Shape" fill="#5F6368" fill-rule="nonzero"/>
  <polygon id="Path" fill="#5F6368" fill-rule="nonzero" transform="translate(9.500000, 14.000000) rotate(-270.000000) translate(-9.500000, -14.000000) " points="9.5 8.5 6.5 12.5 8.5 12.5 8.5 19.5 10.5 19.5 10.5 12.5 12.5 12.5"/>
</g><g transform="translate(0,6968)"><path d="M20,17 L20,20 C20,21.1 19.1,22 18,22 L5.99,22 C4.89,22 4,21.1 4,20 L4,4 C4,2.9 4.9,2 6,2 L14,2 L20,8 L20,11 L18,11 L18,9 L13,9 L13,4 L6,4 L6,20 L18,20 L18,17 L20,17 Z" id="Path" fill="#000000" fill-rule="nonzero"/>
  <polygon id="Path" fill="#000000" fill-rule="nonzero" transform="translate(14.500000, 14.000000) rotate(-90.000000) translate(-14.500000, -14.000000) " points="14.5 8.5 11.5 12.5 13.5 12.5 13.5 19.5 15.5 19.5 15.5 12.5 17.5 12.5"/>
</g><g transform="translate(0,1066)"><path d="M20,17 L20,20 C20,21.1 19.1,22 18,22 L5.99,22 C4.89,22 4,21.1 4,20 L4,4 C4,2.9 4.9,2 6,2 L14,2 L20,8 L20,11 L18,11 L18,9 L13,9 L13,4 L6,4 L6,20 L18,20 L18,17 L20,17 Z" id="Path" fill="#5F6368" fill-rule="nonzero"/>
  <polygon id="Path" fill="#5F6368" fill-rule="nonzero" transform="translate(14.500000, 14.000000) rotate(-90.000000) translate(-14.500000, -14.000000) " points="14.5 8.5 11.5 12.5 13.5 12.5 13.5 19.5 15.5 19.5 15.5 12.5 17.5 12.5"/>
</g><g transform="translate(0,1664)"><path d="M20,17 L20,20 C20,21.1 19.1,22 18,22 L5.99,22 C4.89,22 4,21.1 4,20 L4,4 C4,2.9 4.9,2 6,2 L14,2 L20,8 L20,11 L18,11 L18,9 L13,9 L13,4 L6,4 L6,20 L18,20 L18,17 L20,17 Z" id="Path" fill="#ffffff" fill-rule="nonzero"/>
  <polygon id="Path" fill="#ffffff" fill-rule="nonzero" transform="translate(14.500000, 14.000000) rotate(-90.000000) translate(-14.500000, -14.000000) " points="14.5 8.5 11.5 12.5 13.5 12.5 13.5 19.5 15.5 19.5 15.5 12.5 17.5 12.5"/>
</g><g transform="translate(0,6474)"><path d="M6,17 L6,20 L18,20 L18,9 L13,9 L13,4 L6,4 L6,11 L4,11 L4,4 C4,2.9 4.9,2 6,2 L14,2 L20,8 L20,20 C20,21.1 19.1,22 18,22 L5.99,22 C4.89,22 4,21.1 4,20 L4,17 L6,17 Z" id="Shape" fill="#ffffff" fill-rule="nonzero"/>
  <polygon id="Path" fill="#ffffff" fill-rule="nonzero" transform="translate(9.500000, 14.000000) rotate(-270.000000) translate(-9.500000, -14.000000) " points="9.5 8.5 6.5 12.5 8.5 12.5 8.5 19.5 10.5 19.5 10.5 12.5 12.5 12.5"/>
</g><g transform="translate(0,7020)"><path d="M0 0h24v24H0V0z" fill="none" opacity=".87"/><path d="M0 0h24v24H0V0z" fill="none"/><path fill="#5F6368" d="M11 17h2v-6h-2v6zm1-15C6.48 2 2 6.48 2 12s4.48 10 10 10 10-4.48 10-10S17.52 2 12 2zm0 18c-4.41 0-8-3.59-8-8s3.59-8 8-8 8 3.59 8 8-3.59 8-8 8zM11 9h2V7h-2v2z"/></g><g transform="translate(0,5694)"><path d="M0 0h24v24H0V0z" fill="none" opacity=".87"/><path d="M0 0h24v24H0V0z" fill="none"/><path fill="#000000" d="M11 17h2v-6h-2v6zm1-15C6.48 2 2 6.48 2 12s4.48 10 10 10 10-4.48 10-10S17.52 2 12 2zm0 18c-4.41 0-8-3.59-8-8s3.59-8 8-8 8 3.59 8 8-3.59 8-8 8zM11 9h2V7h-2v2z"/></g><g transform="translate(0,520)"><path d="M0 0h24v24H0V0z" fill="none" opacity=".87"/><path d="M0 0h24v24H0V0z" fill="none"/><path fill="#ffffff" d="M11 17h2v-6h-2v6zm1-15C6.48 2 2 6.48 2 12s4.48 10 10 10 10-4.48 10-10S17.52 2 12 2zm0 18c-4.41 0-8-3.59-8-8s3.59-8 8-8 8 3.59 8 8-3.59 8-8 8zM11 9h2V7h-2v2z"/></g><g transform="translate(0,2678)"><path fill="#5F6368" d="M19 3H5c-1.1 0-2 .9-2 2v14c0 1.1.9 2 2 2h14c1.1 0 2-.9 2-2V5c0-1.1-.9-2-2-2zm0 16H5V5h14v14zM7 10h2v7H7zm4-3h2v10h-2zm4 6h2v4h-2z"/>
  <path fill="none" d="M0 0h24v24H0V0z"/>
</g><g transform="translate(0,3094)"><path fill="#000000" d="M19 3H5c-1.1 0-2 .9-2 2v14c0 1.1.9 2 2 2h14c1.1 0 2-.9 2-2V5c0-1.1-.9-2-2-2zm0 16H5V5h14v14zM7 10h2v7H7zm4-3h2v10h-2zm4 6h2v4h-2z"/>
  <path fill="none" d="M0 0h24v24H0V0z"/>
</g><g transform="translate(0,2496)"><path fill="#FFFFFF" d="M19 3H5c-1.1 0-2 .9-2 2v14c0 1.1.9 2 2 2h14c1.1 0 2-.9 2-2V5c0-1.1-.9-2-2-2zm0 16H5V5h14v14zM7 10h2v7H7zm4-3h2v10h-2zm4 6h2v4h-2z"/>
  <path fill="none" d="M0 0h24v24H0V0z"/>
</g><g transform="translate(0,5876)"><path d="M15.41 16.09l-4.58-4.59 4.58-4.59L14 5.5l-6 6 6 6z" fill="#5F6368"/>
    <path d="M0-.5h24v24H0z" fill="none"/>
</g><g transform="translate(0,6656)"><path d="M15.41 16.09l-4.58-4.59 4.58-4.59L14 5.5l-6 6 6 6z"/>
    <path d="M0-.5h24v24H0z" fill="none"/>
</g><g transform="translate(0,2106)"><path d="M15.41 16.09l-4.58-4.59 4.58-4.59L14 5.5l-6 6 6 6z" fill="#ffffff"/>
    <path d="M0-.5h24v24H0z" fill="none"/>
</g><g transform="translate(0,1794)"><path d="M8.59 16.34l4.58-4.59-4.58-4.59L10 5.75l6 6-6 6z" fill="#5F6368"/>
    <path d="M0-.25h24v24H0z" fill="none"/>
</g><g transform="translate(0,4784)"><path d="M8.59 16.34l4.58-4.59-4.58-4.59L10 5.75l6 6-6 6z"/>
    <path d="M0-.25h24v24H0z" fill="none"/>
</g><g transform="translate(0,5200)"><path d="M8.59 16.34l4.58-4.59-4.58-4.59L10 5.75l6 6-6 6z" fill="#ffffff"/>
    <path d="M0-.25h24v24H0z" fill="none"/>
</g><g transform="translate(0,6942)"><path d="M20 5H4c-1.1 0-1.99.9-1.99 2L2 17c0 1.1.9 2 2 2h16c1.1 0 2-.9 2-2V7c0-1.1-.9-2-2-2zm-9 3h2v2h-2V8zm0 3h2v2h-2v-2zM8 8h2v2H8V8zm0 3h2v2H8v-2zm-1 2H5v-2h2v2zm0-3H5V8h2v2zm9 7H8v-2h8v2zm0-4h-2v-2h2v2zm0-3h-2V8h2v2zm3 3h-2v-2h2v2zm0-3h-2V8h2v2z"/>
    <path d="M0 0h24v24H0zm0 0h24v24H0z" fill="none"/>
</g><g transform="translate(0,3198)"><path d="M20 5H4c-1.1 0-1.99.9-1.99 2L2 17c0 1.1.9 2 2 2h16c1.1 0 2-.9 2-2V7c0-1.1-.9-2-2-2zm-9 3h2v2h-2V8zm0 3h2v2h-2v-2zM8 8h2v2H8V8zm0 3h2v2H8v-2zm-1 2H5v-2h2v2zm0-3H5V8h2v2zm9 7H8v-2h8v2zm0-4h-2v-2h2v2zm0-3h-2V8h2v2zm3 3h-2v-2h2v2zm0-3h-2V8h2v2z" fill="#ffffff"/>
    <path d="M0 0h24v24H0zm0 0h24v24H0z" fill="none"/>
</g><g transform="translate(0,4134)"><path d="M0 0h24v24H0z" fill="none"/>
    <path fill="#5F6368" d="M3.9 12c0-1.71 1.39-3.1 3.1-3.1h4V7H7c-2.76 0-5 2.24-5 5s2.24 5 5 5h4v-1.9H7c-1.71 0-3.1-1.39-3.1-3.1zM8 13h8v-2H8v2zm9-6h-4v1.9h4c1.71 0 3.1 1.39 3.1 3.1s-1.39 3.1-3.1 3.1h-4V17h4c2.76 0 5-2.24 5-5s-2.24-5-5-5z"/>
</g><g transform="translate(0,4628)"><path d="M0 0h24v24H0z" fill="none"/>
    <path d="M3.9 12c0-1.71 1.39-3.1 3.1-3.1h4V7H7c-2.76 0-5 2.24-5 5s2.24 5 5 5h4v-1.9H7c-1.71 0-3.1-1.39-3.1-3.1zM8 13h8v-2H8v2zm9-6h-4v1.9h4c1.71 0 3.1 1.39 3.1 3.1s-1.39 3.1-3.1 3.1h-4V17h4c2.76 0 5-2.24 5-5s-2.24-5-5-5z"/>
</g><g transform="translate(0,2210)"><path fill="#5F6368" d="M14.39 11L16 12.61V11zM17 7h-4v1.9h4c1.71 0 3.1 1.39 3.1 3.1 0 1.27-.77 2.37-1.87 2.84l1.4 1.4C21.05 15.36 22 13.79 22 12c0-2.76-2.24-5-5-5zM2 4.27l3.11 3.11C3.29 8.12 2 9.91 2 12c0 2.76 2.24 5 5 5h4v-1.9H7c-1.71 0-3.1-1.39-3.1-3.1 0-1.59 1.21-2.9 2.76-3.07L8.73 11H8v2h2.73L13 15.27V17h1.73l4.01 4.01 1.41-1.41L3.41 2.86 2 4.27z"/>
</g><g transform="translate(0,6240)"><path fill="#000000" d="M14.39 11L16 12.61V11zM17 7h-4v1.9h4c1.71 0 3.1 1.39 3.1 3.1 0 1.27-.77 2.37-1.87 2.84l1.4 1.4C21.05 15.36 22 13.79 22 12c0-2.76-2.24-5-5-5zM2 4.27l3.11 3.11C3.29 8.12 2 9.91 2 12c0 2.76 2.24 5 5 5h4v-1.9H7c-1.71 0-3.1-1.39-3.1-3.1 0-1.59 1.21-2.9 2.76-3.07L8.73 11H8v2h2.73L13 15.27V17h1.73l4.01 4.01 1.41-1.41L3.41 2.86 2 4.27z"/>
</g><g transform="translate(0,6032)"><path fill="#FFFFFF" d="M14.39 11L16 12.61V11zM17 7h-4v1.9h4c1.71 0 3.1 1.39 3.1 3.1 0 1.27-.77 2.37-1.87 2.84l1.4 1.4C21.05 15.36 22 13.79 22 12c0-2.76-2.24-5-5-5zM2 4.27l3.11 3.11C3.29 8.12 2 9.91 2 12c0 2.76 2.24 5 5 5h4v-1.9H7c-1.71 0-3.1-1.39-3.1-3.1 0-1.59 1.21-2.9 2.76-3.07L8.73 11H8v2h2.73L13 15.27V17h1.73l4.01 4.01 1.41-1.41L3.41 2.86 2 4.27z"/>
</g><g transform="translate(0,624)"><path d="M0 0h24v24H0z" fill="none"/>
    <path d="M3.9 12c0-1.71 1.39-3.1 3.1-3.1h4V7H7c-2.76 0-5 2.24-5 5s2.24 5 5 5h4v-1.9H7c-1.71 0-3.1-1.39-3.1-3.1zM8 13h8v-2H8v2zm9-6h-4v1.9h4c1.71 0 3.1 1.39 3.1 3.1s-1.39 3.1-3.1 3.1h-4V17h4c2.76 0 5-2.24 5-5s-2.24-5-5-5z" fill="#ffffff"/>
</g><g transform="translate(0,1040)"><path fill="#5F6368" d="M19 8h-1V3H6v5H5c-1.66 0-3 1.34-3 3v6h4v4h12v-4h4v-6c0-1.66-1.34-3-3-3zm-3 11H8v-4h8v4zm0-11H8V5h8v3zm2 4.5c-.55 0-1-.45-1-1s.45-1 1-1 1 .45 1 1-.45 1-1 1z"/>
</g><g transform="translate(0,1820)"><path fill="#000000" d="M19 8h-1V3H6v5H5c-1.66 0-3 1.34-3 3v6h4v4h12v-4h4v-6c0-1.66-1.34-3-3-3zm-3 11H8v-4h8v4zm0-11H8V5h8v3zm2 4.5c-.55 0-1-.45-1-1s.45-1 1-1 1 .45 1 1-.45 1-1 1z"/>
</g><g transform="translate(0,5954)"><path fill="#FFFFFF" d="M19 8h-1V3H6v5H5c-1.66 0-3 1.34-3 3v6h4v4h12v-4h4v-6c0-1.66-1.34-3-3-3zm-3 11H8v-4h8v4zm0-11H8V5h8v3zm2 4.5c-.55 0-1-.45-1-1s.45-1 1-1 1 .45 1 1-.45 1-1 1z"/>
</g><g transform="translate(0,6812)"><path d="M18 8h-1V6c0-2.76-2.24-5-5-5S7 3.24 7 6v2H6c-1.1 0-2 .9-2 2v10c0 1.1.9 2 2 2h12c1.1 0 2-.9 2-2V10c0-1.1-.9-2-2-2zm-6 9c-1.1 0-2-.9-2-2s.9-2 2-2 2 .9 2 2-.9 2-2 2zm3.1-9H8.9V6c0-1.71 1.39-3.1 3.1-3.1 1.71 0 3.1 1.39 3.1 3.1v2z"/></g><g transform="translate(0,728)"><path fill="#5F6368" d="M18 8h-1V6c0-2.76-2.24-5-5-5S7 3.24 7 6v2H6c-1.1 0-2 .9-2 2v10c0 1.1.9 2 2 2h12c1.1 0 2-.9 2-2V10c0-1.1-.9-2-2-2zM9 6c0-1.66 1.34-3 3-3s3 1.34 3 3v2H9V6zm9 14H6V10h12v10zm-6-3c1.1 0 2-.9 2-2s-.9-2-2-2-2 .9-2 2 .9 2 2 2z"/>
  <path fill="none" d="M0 0h24v24H0V0z"/>
</g><g transform="translate(0,3302)"><path fill="#000000" d="M18 8h-1V6c0-2.76-2.24-5-5-5S7 3.24 7 6v2H6c-1.1 0-2 .9-2 2v10c0 1.1.9 2 2 2h12c1.1 0 2-.9 2-2V10c0-1.1-.9-2-2-2zM9 6c0-1.66 1.34-3 3-3s3 1.34 3 3v2H9V6zm9 14H6V10h12v10zm-6-3c1.1 0 2-.9 2-2s-.9-2-2-2-2 .9-2 2 .9 2 2 2z"/>
  <path fill="none" d="M0 0h24v24H0V0z"/>
</g><g transform="translate(0,5616)"><path fill="#ffffff" d="M18 8h-1V6c0-2.76-2.24-5-5-5S7 3.24 7 6v2H6c-1.1 0-2 .9-2 2v10c0 1.1.9 2 2 2h12c1.1 0 2-.9 2-2V10c0-1.1-.9-2-2-2zM9 6c0-1.66 1.34-3 3-3s3 1.34 3 3v2H9V6zm9 14H6V10h12v10zm-6-3c1.1 0 2-.9 2-2s-.9-2-2-2-2 .9-2 2 .9 2 2 2z"/>
  <path fill="none" d="M0 0h24v24H0V0z"/>
</g><g transform="translate(0,5564)"><path d="M0 0h24v24H0z" fill="none"/>
  <path d="M18 8h-1V6c0-2.76-2.24-5-5-5S7 3.24 7 6v2H6c-1.1 0-2 .9-2 2v10c0 1.1.9 2 2 2h12c1.1 0 2-.9 2-2V10c0-1.1-.9-2-2-2zm-6 9c-1.1 0-2-.9-2-2s.9-2 2-2 2 .9 2 2-.9 2-2 2zm3.1-9H8.9V6c0-1.71 1.39-3.1 3.1-3.1 1.71 0 3.1 1.39 3.1 3.1v2z" fill="#FFFFFF"/>
</g><g transform="translate(0,2574)"><path d="M 19,4 H 5 V 2 h 14 v 2 z"/>
    <path d="M0 0h24v24H0z" fill="none"/>
</g><g transform="translate(0,2704)"><path d="M 19,4 H 5 V 2 h 14 v 2 z" fill="#FFFFFF"/>
    <path d="M0 0h24v24H0z" fill="none"/>
</g><g transform="translate(0,4160)"><path d="M0 0h24v24H0z" fill="none"/>
    <path d="M3 18h18v-2H3v2zm0-5h18v-2H3v2zm0-7v2h18V6H3z" fill="#000000"/>
</g><g transform="translate(0,5642)"><path d="M0 0h24v24H0z" fill="none"/>
    <path d="M3 18h18v-2H3v2zm0-5h18v-2H3v2zm0-7v2h18V6H3z" fill="#5F6368"/>
</g><g transform="translate(0,1352)"><path d="M0 0h24v24H0z" fill="none"/>
    <path d="M3 18h18v-2H3v2zm0-5h18v-2H3v2zm0-7v2h18V6H3z" fill="#FFFFFF"/>
</g><g transform="translate(0,1274)"><path d="M 19,20 H 5 v -2 h 14 v 2 z"/>
    <path d="M0 0h24v24H0z" fill="none"/>
</g><g transform="translate(0,2860)"><path d="M 19,20 H 5 v -2 h 14 v 2 z" fill="#FFFFFF"/>
    <path d="M0 0h24v24H0z" fill="none"/>
</g><g transform="translate(0,1846)"><path fill="#5F6368" d="M20.41 4.94l-1.35-1.35c-.78-.78-2.05-.78-2.83 0L13.4 6.41 3 16.82V21h4.18l10.46-10.46 2.77-2.77c.79-.78.79-2.05 0-2.83zm-14 14.12L5 19v-1.36l9.82-9.82 1.41 1.41-9.82 9.83z"/>
</g><g transform="translate(0,3276)"><path fill="#000000" d="M20.41 4.94l-1.35-1.35c-.78-.78-2.05-.78-2.83 0L13.4 6.41 3 16.82V21h4.18l10.46-10.46 2.77-2.77c.79-.78.79-2.05 0-2.83zm-14 14.12L5 19v-1.36l9.82-9.82 1.41 1.41-9.82 9.83z"/>
</g><g transform="translate(0,650)"><path fill="#FFFFFF" d="M20.41 4.94l-1.35-1.35c-.78-.78-2.05-.78-2.83 0L13.4 6.41 3 16.82V21h4.18l10.46-10.46 2.77-2.77c.79-.78.79-2.05 0-2.83zm-14 14.12L5 19v-1.36l9.82-9.82 1.41 1.41-9.82 9.83z"/>
</g><g transform="translate(0,1378)"><path d="M0 0h24v24H0z" fill="none"/>
    <path d="M12 8c1.1 0 2-.9 2-2s-.9-2-2-2-2 .9-2 2 .9 2 2 2zm0 2c-1.1 0-2 .9-2 2s.9 2 2 2 2-.9 2-2-.9-2-2-2zm0 6c-1.1 0-2 .9-2 2s.9 2 2 2 2-.9 2-2-.9-2-2-2z"/>
</g><g transform="translate(0,182)"><path d="M0 0h24v24H0z" fill="none"/>
    <path d="M12 8c1.1 0 2-.9 2-2s-.9-2-2-2-2 .9-2 2 .9 2 2 2zm0 2c-1.1 0-2 .9-2 2s.9 2 2 2 2-.9 2-2-.9-2-2-2zm0 6c-1.1 0-2 .9-2 2s.9 2 2 2 2-.9 2-2-.9-2-2-2z" fill="#5F6368"/>
</g><g transform="translate(0,2522)"><path d="M0 0h24v24H0z" fill="none"/>
    <path d="M12 8c1.1 0 2-.9 2-2s-.9-2-2-2-2 .9-2 2 .9 2 2 2zm0 2c-1.1 0-2 .9-2 2s.9 2 2 2 2-.9 2-2-.9-2-2-2zm0 6c-1.1 0-2 .9-2 2s.9 2 2 2 2-.9 2-2-.9-2-2-2z" fill="#FFFFFF"/>
</g><g transform="translate(0,104)"><path d="M12 3c-4.97 0-9 4.03-9 9s4.03 9 9 9c.83 0 1.5-.67 1.5-1.5 0-.39-.15-.74-.39-1.01-.23-.26-.38-.61-.38-.99 0-.83.67-1.5 1.5-1.5H16c2.76 0 5-2.24 5-5 0-4.42-4.03-8-9-8zm-5.5 9c-.83 0-1.5-.67-1.5-1.5S5.67 9 6.5 9 8 9.67 8 10.5 7.33 12 6.5 12zm3-4C8.67 8 8 7.33 8 6.5S8.67 5 9.5 5s1.5.67 1.5 1.5S10.33 8 9.5 8zm5 0c-.83 0-1.5-.67-1.5-1.5S13.67 5 14.5 5s1.5.67 1.5 1.5S15.33 8 14.5 8zm3 4c-.83 0-1.5-.67-1.5-1.5S16.67 9 17.5 9s1.5.67 1.5 1.5-.67 1.5-1.5 1.5z"/></g><g transform="translate(0,6188)"><path fill="#5F6368" d="M12 22C6.49 22 2 17.51 2 12S6.49 2 12 2s10 4.04 10 9c0 3.31-2.69 6-6 6h-1.77c-.28 0-.5.22-.5.5 0 .12.05.23.13.33.41.47.64 1.06.64 1.67 0 1.38-1.12 2.5-2.5 2.5zm0-18c-4.41 0-8 3.59-8 8s3.59 8 8 8c.28 0 .5-.22.5-.5 0-.16-.08-.28-.14-.35-.41-.46-.63-1.05-.63-1.65 0-1.38 1.12-2.5 2.5-2.5H16c2.21 0 4-1.79 4-4 0-3.86-3.59-7-8-7z"/>
  <circle fill="#5F6368" cx="6.5" cy="11.5" r="1.5"/>
  <circle fill="#5F6368" cx="9.5" cy="7.5" r="1.5"/>
  <circle fill="#5F6368" cx="14.5" cy="7.5" r="1.5"/>
  <circle fill="#5F6368" cx="17.5" cy="11.5" r="1.5"/>
</g><g transform="translate(0,4966)"><path fill="#000000" d="M12 22C6.49 22 2 17.51 2 12S6.49 2 12 2s10 4.04 10 9c0 3.31-2.69 6-6 6h-1.77c-.28 0-.5.22-.5.5 0 .12.05.23.13.33.41.47.64 1.06.64 1.67 0 1.38-1.12 2.5-2.5 2.5zm0-18c-4.41 0-8 3.59-8 8s3.59 8 8 8c.28 0 .5-.22.5-.5 0-.16-.08-.28-.14-.35-.41-.46-.63-1.05-.63-1.65 0-1.38 1.12-2.5 2.5-2.5H16c2.21 0 4-1.79 4-4 0-3.86-3.59-7-8-7z"/>
  <circle fill="#000000" cx="6.5" cy="11.5" r="1.5"/>
  <circle fill="#000000" cx="9.5" cy="7.5" r="1.5"/>
  <circle fill="#000000" cx="14.5" cy="7.5" r="1.5"/>
  <circle fill="#000000" cx="17.5" cy="11.5" r="1.5"/>
</g><g transform="translate(0,6786)"><path fill="#FFFFFF" d="M12 22C6.49 22 2 17.51 2 12S6.49 2 12 2s10 4.04 10 9c0 3.31-2.69 6-6 6h-1.77c-.28 0-.5.22-.5.5 0 .12.05.23.13.33.41.47.64 1.06.64 1.67 0 1.38-1.12 2.5-2.5 2.5zm0-18c-4.41 0-8 3.59-8 8s3.59 8 8 8c.28 0 .5-.22.5-.5 0-.16-.08-.28-.14-.35-.41-.46-.63-1.05-.63-1.65 0-1.38 1.12-2.5 2.5-2.5H16c2.21 0 4-1.79 4-4 0-3.86-3.59-7-8-7z"/>
  <circle fill="#FFFFFF" cx="6.5" cy="11.5" r="1.5"/>
  <circle fill="#FFFFFF" cx="9.5" cy="7.5" r="1.5"/>
  <circle fill="#FFFFFF" cx="14.5" cy="7.5" r="1.5"/>
  <circle fill="#FFFFFF" cx="17.5" cy="11.5" r="1.5"/>
</g><g transform="translate(0,5668)"><path d="M12 3c-4.97 0-9 4.03-9 9s4.03 9 9 9c.83 0 1.5-.67 1.5-1.5 0-.39-.15-.74-.39-1.01-.23-.26-.38-.61-.38-.99 0-.83.67-1.5 1.5-1.5H16c2.76 0 5-2.24 5-5 0-4.42-4.03-8-9-8zm-5.5 9c-.83 0-1.5-.67-1.5-1.5S5.67 9 6.5 9 8 9.67 8 10.5 7.33 12 6.5 12zm3-4C8.67 8 8 7.33 8 6.5S8.67 5 9.5 5s1.5.67 1.5 1.5S10.33 8 9.5 8zm5 0c-.83 0-1.5-.67-1.5-1.5S13.67 5 14.5 5s1.5.67 1.5 1.5S15.33 8 14.5 8zm3 4c-.83 0-1.5-.67-1.5-1.5S16.67 9 17.5 9s1.5.67 1.5 1.5-.67 1.5-1.5 1.5z" fill="#FFFFFF"/>
    <path d="M0 0h24v24H0z" fill="none"/>
</g><g transform="translate(0,2730)"><path d="M20 2H4c-1.1 0-1.99.9-1.99 2L2 20c0 1.1.9 2 2 2h16c1.1 0 2-.9 2-2V4c0-1.1-.9-2-2-2zm-1 2v3h-2c-.55 0-1 .45-1 1v2h3v3h-3v7h-3v-7h-2v-3h2V7.5C13 5.57 14.57 4 16.5 4H19z"/>
    <path d="M0 0h24v24H0z" fill="none"/>
</g><g transform="translate(0,4602)"><path d="M20 2H4c-1.1 0-1.99.9-1.99 2L2 20c0 1.1.9 2 2 2h16c1.1 0 2-.9 2-2V4c0-1.1-.9-2-2-2zm-1 2v3h-2c-.55 0-1 .45-1 1v2h3v3h-3v7h-3v-7h-2v-3h2V7.5C13 5.57 14.57 4 16.5 4H19z" fill="#ffffff"/>
    <path d="M0 0h24v24H0z" fill="none"/>
</g><g transform="translate(0,962)"><path d="M20 2H4c-1.1 0-1.99.9-1.99 2L2 20c0 1.1.9 2 2 2h16c1.1 0 2-.9 2-2V4c0-1.1-.9-2-2-2zm-2.29 7.33c-.06 4.62-3.02 7.78-7.42 7.98-1.82.08-3.14-.5-4.28-1.23 1.34.21 3.01-.32 3.9-1.09-1.32-.13-2.1-.8-2.46-1.88.38.07.78.05 1.14-.03-1.19-.4-2.04-1.13-2.08-2.67.33.15.68.29 1.14.32-.9-.5-1.55-2.35-.8-3.57 1.32 1.45 2.91 2.63 5.52 2.79-.65-2.8 3.06-4.32 4.61-2.44.66-.13 1.19-.38 1.7-.65-.21.65-.62 1.1-1.12 1.47.54-.07 1.03-.21 1.44-.41-.25.53-.81 1.01-1.29 1.41z"/>
    <path d="M0 0h24v24H0z" fill="none"/>
</g><g transform="translate(0,5096)"><path d="M20 2H4c-1.1 0-1.99.9-1.99 2L2 20c0 1.1.9 2 2 2h16c1.1 0 2-.9 2-2V4c0-1.1-.9-2-2-2zm-2.29 7.33c-.06 4.62-3.02 7.78-7.42 7.98-1.82.08-3.14-.5-4.28-1.23 1.34.21 3.01-.32 3.9-1.09-1.32-.13-2.1-.8-2.46-1.88.38.07.78.05 1.14-.03-1.19-.4-2.04-1.13-2.08-2.67.33.15.68.29 1.14.32-.9-.5-1.55-2.35-.8-3.57 1.32 1.45 2.91 2.63 5.52 2.79-.65-2.8 3.06-4.32 4.61-2.44.66-.13 1.19-.38 1.7-.65-.21.65-.62 1.1-1.12 1.47.54-.07 1.03-.21 1.44-.41-.25.53-.81 1.01-1.29 1.41z" fill="#ffffff"/>
    <path d="M0 0h24v24H0z" fill="none"/>
</g><g transform="translate(0,2418)"><path fill="#5F6368" d="M9,12 C11.21,12 13,10.21 13,8 C13,5.79 11.21,4 9,4 C6.79,4 5,5.79 5,8 C5,10.21 6.79,12 9,12 Z M9,6 C10.1,6 11,6.9 11,8 C11,9.1 10.1,10 9,10 C7.9,10 7,9.1 7,8 C7,6.9 7.9,6 9,6 Z M9,13 C6.33,13 1,14.34 1,17 L1,20 L17,20 L17,17 C17,14.34 11.67,13 9,13 Z M15,18 L3,18 L3,17.01 C3.2,16.29 6.3,15 9,15 C11.7,15 14.8,16.29 15,17 L15,18 Z M22.7545193,10.74 C22.9145193,10.86 22.9545193,11.08 22.8545193,11.25 L22.0045193,12.73 C21.9245193,12.86 21.7945193,12.93 21.6545193,12.93 C21.6045193,12.93 21.5545193,12.92 21.5045193,12.9 L20.5545193,12.52 L20.4645193,12.58 C20.4345193,12.6 20.3945193,12.61 20.3645193,12.63 L20.2145193,13.64 C20.1845193,13.83 20.0145193,13.98 19.8145193,13.98 L18.1045193,13.98 C17.9045193,13.98 17.7345193,13.84 17.7045193,13.64 L17.5545193,12.63 C17.4745193,12.59 17.4345193,12.57 17.3545193,12.52 L16.4045193,12.89 C16.3545193,12.91 16.3045193,12.92 16.2545193,12.92 C16.1145193,12.92 15.9745193,12.85 15.9045193,12.72 L15.0545193,11.24 C14.9545193,11.07 14.9945193,10.85 15.1545193,10.73 L15.9545193,10.1 L15.9545193,9.87 L15.1545193,9.24 C14.9945193,9.12 14.9545193,8.9 15.0545193,8.73 L15.9045193,7.25 C15.9845193,7.12 16.1145193,7.05 16.2545193,7.05 C16.3045193,7.05 16.3545193,7.06 16.4045193,7.08 L17.3545193,7.46 L17.4445193,7.4 C17.4745193,7.38 17.5145193,7.37 17.5445193,7.35 L17.6845193,6.34 C17.7145193,6.15 17.8845193,6 18.0845193,6 L19.7945193,6 C19.9945193,6 20.1645193,6.15 20.1945193,6.36 L20.3445193,7.37 C20.4245193,7.41 20.4545193,7.43 20.5345193,7.48 L21.4845193,7.1 C21.5345193,7.08 21.5845193,7.07 21.6345193,7.07 C21.7745193,7.07 21.9145193,7.14 21.9845193,7.27 L22.8345193,8.75 C22.9345193,8.92 22.8945193,9.14 22.7345193,9.26 L21.9345193,9.89 L21.9345193,10.11 L22.7545193,10.74 Z M18.9445193,11.5 C19.7745193,11.5 20.4445193,10.83 20.4445193,10 C20.4445193,9.17 19.7745193,8.5 18.9445193,8.5 C18.1145193,8.5 17.4445193,9.17 17.4445193,10 C17.4445193,10.83 18.1145193,11.5 18.9445193,11.5 Z"/>
</g><g transform="translate(0,6916)"><path fill="#000000" d="M9,12 C11.21,12 13,10.21 13,8 C13,5.79 11.21,4 9,4 C6.79,4 5,5.79 5,8 C5,10.21 6.79,12 9,12 Z M9,6 C10.1,6 11,6.9 11,8 C11,9.1 10.1,10 9,10 C7.9,10 7,9.1 7,8 C7,6.9 7.9,6 9,6 Z M9,13 C6.33,13 1,14.34 1,17 L1,20 L17,20 L17,17 C17,14.34 11.67,13 9,13 Z M15,18 L3,18 L3,17.01 C3.2,16.29 6.3,15 9,15 C11.7,15 14.8,16.29 15,17 L15,18 Z M22.7545193,10.74 C22.9145193,10.86 22.9545193,11.08 22.8545193,11.25 L22.0045193,12.73 C21.9245193,12.86 21.7945193,12.93 21.6545193,12.93 C21.6045193,12.93 21.5545193,12.92 21.5045193,12.9 L20.5545193,12.52 L20.4645193,12.58 C20.4345193,12.6 20.3945193,12.61 20.3645193,12.63 L20.2145193,13.64 C20.1845193,13.83 20.0145193,13.98 19.8145193,13.98 L18.1045193,13.98 C17.9045193,13.98 17.7345193,13.84 17.7045193,13.64 L17.5545193,12.63 C17.4745193,12.59 17.4345193,12.57 17.3545193,12.52 L16.4045193,12.89 C16.3545193,12.91 16.3045193,12.92 16.2545193,12.92 C16.1145193,12.92 15.9745193,12.85 15.9045193,12.72 L15.0545193,11.24 C14.9545193,11.07 14.9945193,10.85 15.1545193,10.73 L15.9545193,10.1 L15.9545193,9.87 L15.1545193,9.24 C14.9945193,9.12 14.9545193,8.9 15.0545193,8.73 L15.9045193,7.25 C15.9845193,7.12 16.1145193,7.05 16.2545193,7.05 C16.3045193,7.05 16.3545193,7.06 16.4045193,7.08 L17.3545193,7.46 L17.4445193,7.4 C17.4745193,7.38 17.5145193,7.37 17.5445193,7.35 L17.6845193,6.34 C17.7145193,6.15 17.8845193,6 18.0845193,6 L19.7945193,6 C19.9945193,6 20.1645193,6.15 20.1945193,6.36 L20.3445193,7.37 C20.4245193,7.41 20.4545193,7.43 20.5345193,7.48 L21.4845193,7.1 C21.5345193,7.08 21.5845193,7.07 21.6345193,7.07 C21.7745193,7.07 21.9145193,7.14 21.9845193,7.27 L22.8345193,8.75 C22.9345193,8.92 22.8945193,9.14 22.7345193,9.26 L21.9345193,9.89 L21.9345193,10.11 L22.7545193,10.74 Z M18.9445193,11.5 C19.7745193,11.5 20.4445193,10.83 20.4445193,10 C20.4445193,9.17 19.7745193,8.5 18.9445193,8.5 C18.1145193,8.5 17.4445193,9.17 17.4445193,10 C17.4445193,10.83 18.1145193,11.5 18.9445193,11.5 Z"/>
</g><g transform="translate(0,4992)"><path fill="#ffffff" d="M9,12 C11.21,12 13,10.21 13,8 C13,5.79 11.21,4 9,4 C6.79,4 5,5.79 5,8 C5,10.21 6.79,12 9,12 Z M9,6 C10.1,6 11,6.9 11,8 C11,9.1 10.1,10 9,10 C7.9,10 7,9.1 7,8 C7,6.9 7.9,6 9,6 Z M9,13 C6.33,13 1,14.34 1,17 L1,20 L17,20 L17,17 C17,14.34 11.67,13 9,13 Z M15,18 L3,18 L3,17.01 C3.2,16.29 6.3,15 9,15 C11.7,15 14.8,16.29 15,17 L15,18 Z M22.7545193,10.74 C22.9145193,10.86 22.9545193,11.08 22.8545193,11.25 L22.0045193,12.73 C21.9245193,12.86 21.7945193,12.93 21.6545193,12.93 C21.6045193,12.93 21.5545193,12.92 21.5045193,12.9 L20.5545193,12.52 L20.4645193,12.58 C20.4345193,12.6 20.3945193,12.61 20.3645193,12.63 L20.2145193,13.64 C20.1845193,13.83 20.0145193,13.98 19.8145193,13.98 L18.1045193,13.98 C17.9045193,13.98 17.7345193,13.84 17.7045193,13.64 L17.5545193,12.63 C17.4745193,12.59 17.4345193,12.57 17.3545193,12.52 L16.4045193,12.89 C16.3545193,12.91 16.3045193,12.92 16.2545193,12.92 C16.1145193,12.92 15.9745193,12.85 15.9045193,12.72 L15.0545193,11.24 C14.9545193,11.07 14.9945193,10.85 15.1545193,10.73 L15.9545193,10.1 L15.9545193,9.87 L15.1545193,9.24 C14.9945193,9.12 14.9545193,8.9 15.0545193,8.73 L15.9045193,7.25 C15.9845193,7.12 16.1145193,7.05 16.2545193,7.05 C16.3045193,7.05 16.3545193,7.06 16.4045193,7.08 L17.3545193,7.46 L17.4445193,7.4 C17.4745193,7.38 17.5145193,7.37 17.5445193,7.35 L17.6845193,6.34 C17.7145193,6.15 17.8845193,6 18.0845193,6 L19.7945193,6 C19.9945193,6 20.1645193,6.15 20.1945193,6.36 L20.3445193,7.37 C20.4245193,7.41 20.4545193,7.43 20.5345193,7.48 L21.4845193,7.1 C21.5345193,7.08 21.5845193,7.07 21.6345193,7.07 C21.7745193,7.07 21.9145193,7.14 21.9845193,7.27 L22.8345193,8.75 C22.9345193,8.92 22.8945193,9.14 22.7345193,9.26 L21.9345193,9.89 L21.9345193,10.11 L22.7545193,10.74 Z M18.9445193,11.5 C19.7745193,11.5 20.4445193,10.83 20.4445193,10 C20.4445193,9.17 19.7745193,8.5 18.9445193,8.5 C18.1145193,8.5 17.4445193,9.17 17.4445193,10 C17.4445193,10.83 18.1145193,11.5 18.9445193,11.5 Z"/>
</g><g transform="translate(0,2184)"><path d="M19 8H5c-1.66 0-3 1.34-3 3v6h4v4h12v-4h4v-6c0-1.66-1.34-3-3-3zm-3 11H8v-5h8v5zm3-7c-.55 0-1-.45-1-1s.45-1 1-1 1 .45 1 1-.45 1-1 1zm-1-9H6v4h12V3z"/>
    <path d="M0 0h24v24H0z" fill="none"/>
</g><g transform="translate(0,4342)"><path d="M19 8H5c-1.66 0-3 1.34-3 3v6h4v4h12v-4h4v-6c0-1.66-1.34-3-3-3zm-3 11H8v-5h8v5zm3-7c-.55 0-1-.45-1-1s.45-1 1-1 1 .45 1 1-.45 1-1 1zm-1-9H6v4h12V3z" fill="#ffffff"/>
    <path d="M0 0h24v24H0z" fill="none"/>
</g><g transform="translate(0,4212)"><g><rect fill="none" height="24" width="24"/><path fill="#5F6368" d="M12,3.19l7,3.11V11c0,4.52-2.98,8.69-7,9.93C7.98,19.69,5,15.52,5,11V6.3L12,3.19 M12,1L3,5v6c0,5.55,3.84,10.74,9,12 c5.16-1.26,9-6.45,9-12V5L12,1L12,1z M12,7L12,7c0.55,0,1,0.45,1,1v0c0,0.55-0.45,1-1,1h0c-0.55,0-1-0.45-1-1v0 C11,7.45,11.45,7,12,7z M11,11h2v6h-2V11z"/></g></g><g transform="translate(0,6500)"><g><rect fill="none" height="24" width="24"/><path fill="#000000" d="M12,3.19l7,3.11V11c0,4.52-2.98,8.69-7,9.93C7.98,19.69,5,15.52,5,11V6.3L12,3.19 M12,1L3,5v6c0,5.55,3.84,10.74,9,12 c5.16-1.26,9-6.45,9-12V5L12,1L12,1z M12,7L12,7c0.55,0,1,0.45,1,1v0c0,0.55-0.45,1-1,1h0c-0.55,0-1-0.45-1-1v0 C11,7.45,11.45,7,12,7z M11,11h2v6h-2V11z"/></g></g><g transform="translate(0,3146)"><g><rect fill="none" height="24" width="24"/><path fill="#ffffff" d="M12,3.19l7,3.11V11c0,4.52-2.98,8.69-7,9.93C7.98,19.69,5,15.52,5,11V6.3L12,3.19 M12,1L3,5v6c0,5.55,3.84,10.74,9,12 c5.16-1.26,9-6.45,9-12V5L12,1L12,1z M12,7L12,7c0.55,0,1,0.45,1,1v0c0,0.55-0.45,1-1,1h0c-0.55,0-1-0.45-1-1v0 C11,7.45,11.45,7,12,7z M11,11h2v6h-2V11z"/></g></g><g transform="translate(0,5720)"><path fill="#5f6368" d="M6 13.5C6 11.57 7.75 10 9.9 10h6.27l-2.59 2.59L15 14l5-5-5-5-1.41 1.41L16.17 8H9.9C6.65 8 4 10.47 4 13.5S6.65 19 9.9 19H17v-2H9.9C7.75 17 6 15.43 6 13.5z"/>
  <path d="M0 0h24v24H0z" fill="none"/>
</g><g transform="translate(0,2886)"><path fill="#000000" d="M6 13.5C6 11.57 7.75 10 9.9 10h6.27l-2.59 2.59L15 14l5-5-5-5-1.41 1.41L16.17 8H9.9C6.65 8 4 10.47 4 13.5S6.65 19 9.9 19H17v-2H9.9C7.75 17 6 15.43 6 13.5z"/>
  <path d="M0 0h24v24H0z" fill="none"/>
</g><g transform="translate(0,4680)"><path fill="#ffffff" d="M6 13.5C6 11.57 7.75 10 9.9 10h6.27l-2.59 2.59L15 14l5-5-5-5-1.41 1.41L16.17 8H9.9C6.65 8 4 10.47 4 13.5S6.65 19 9.9 19H17v-2H9.9C7.75 17 6 15.43 6 13.5z"/>
  <path d="M0 0h24v24H0z" fill="none"/>
</g><g transform="translate(0,858)"><path d="M0 0h24v24H0V0z" fill="none"/>
  <path d="M15.73 3H8.27L3 8.27v7.46L8.27 21h7.46L21 15.73V8.27L15.73 3zM19 14.9L14.9 19H9.1L5 14.9V9.1L9.1 5h5.8L19 9.1v5.8z" fill="#455A64"/>
  <circle cx="12" cy="16" r="1" fill="#455A64"/>
  <path d="M11 7h2v7h-2z" fill="#455A64"/>
</g><g transform="translate(0,3666)"><path d="M0 0h24v24H0V0z" fill="none"/>
  <path d="M15.73 3H8.27L3 8.27v7.46L8.27 21h7.46L21 15.73V8.27L15.73 3zM19 14.9L14.9 19H9.1L5 14.9V9.1L9.1 5h5.8L19 9.1v5.8z" fill="#000000"/>
  <circle cx="12" cy="16" r="1" fill="#000000"/>
  <path d="M11 7h2v7h-2z" fill="#000000"/>
</g><g transform="translate(0,7280)"><path d="M0 0h24v24H0V0z" fill="none"/>
  <path d="M15.73 3H8.27L3 8.27v7.46L8.27 21h7.46L21 15.73V8.27L15.73 3zM19 14.9L14.9 19H9.1L5 14.9V9.1L9.1 5h5.8L19 9.1v5.8z" fill="#000000"/>
  <circle cx="12" cy="16" r="1" fill="#000000"/>
  <path d="M11 7h2v7h-2z" fill="#000000"/>
</g><g transform="translate(0,3848)"><path d="M0 0h24v24H0V0z" fill="none"/>
    <path d="M15.73 3H8.27L3 8.27v7.46L8.27 21h7.46L21 15.73V8.27L15.73 3zM19 14.9L14.9 19H9.1L5 14.9V9.1L9.1 5h5.8L19 9.1v5.8z"/>
    <circle cx="12" cy="16" r="1"/>
    <path d="M11 7h2v7h-2z"/>
</g><g transform="translate(0,6526)"><path d="M0 0h24v24H0V0z" fill="none"/>
  <path d="M12 5.99L19.53 19H4.47L12 5.99M12 2L1 21h22L12 2zm1 14h-2v2h2v-2zm0-6h-2v4h2v-4z" fill="#455A64"/>
</g><g transform="translate(0,2782)"><path d="M0 0h24v24H0V0z" fill="none"/>
  <path d="M12 5.99L19.53 19H4.47L12 5.99M12 2L1 21h22L12 2zm1 14h-2v2h2v-2zm0-6h-2v4h2v-4z" fill="#000000"/>
</g><g transform="translate(0,2444)"><path d="M0 0h24v24H0V0z" fill="none"/>
  <path d="M12 5.99L19.53 19H4.47L12 5.99M12 2L1 21h22L12 2zm1 14h-2v2h2v-2zm0-6h-2v4h2v-4z" fill="#000000"/>
</g><g transform="translate(0,1326)"><path d="M0 0h24v24H0V0z" fill="none"/>
  <path d="M12 5.99L19.53 19H4.47L12 5.99M12 2L1 21h22L12 2zm1 14h-2v2h2v-2zm0-6h-2v4h2v-4z" fill="#FFFFFF"/>
</g><g transform="translate(0,5590)"><path d="M0 0h24v24H0V0z" fill="none"/>
  <path d="M15.73 3H8.27L3 8.27v7.46L8.27 21h7.46L21 15.73V8.27L15.73 3zM19 14.9L14.9 19H9.1L5 14.9V9.1L9.1 5h5.8L19 9.1v5.8z" fill="#FFFFFF"/>
  <circle cx="12" cy="16" r="1" fill="#FFFFFF"/>
  <path d="M11 7h2v7h-2z" fill="#FFFFFF"/>
</g><g transform="translate(0,6136)"><path d="M0 0h24v24H0V0z" fill="none"/>
  <path d="M15.73 3H8.27L3 8.27v7.46L8.27 21h7.46L21 15.73V8.27L15.73 3zM19 14.9L14.9 19H9.1L5 14.9V9.1L9.1 5h5.8L19 9.1v5.8z" fill="#FFFFFF"/>
  <circle cx="12" cy="16" r="1" fill="#FFFFFF"/>
  <path d="M11 7h2v7h-2z" fill="#FFFFFF"/>
</g><g transform="translate(0,754)"><path d="M15.5 14h-.79l-.28-.27C15.41 12.59 16 11.11 16 9.5 16 5.91 13.09 3 9.5 3S3 5.91 3 9.5 5.91 16 9.5 16c1.61 0 3.09-.59 4.23-1.57l.27.28v.79l5 4.99L20.49 19l-4.99-5zm-6 0C7.01 14 5 11.99 5 9.5S7.01 5 9.5 5 14 7.01 14 9.5 11.99 14 9.5 14z" fill="#000000"/>
    <path d="M0 0h24v24H0z" fill="none"/>
</g><g transform="translate(0,4914)"><path d="M15.5 14h-.79l-.28-.27C15.41 12.59 16 11.11 16 9.5 16 5.91 13.09 3 9.5 3S3 5.91 3 9.5 5.91 16 9.5 16c1.61 0 3.09-.59 4.23-1.57l.27.28v.79l5 4.99L20.49 19l-4.99-5zm-6 0C7.01 14 5 11.99 5 9.5S7.01 5 9.5 5 14 7.01 14 9.5 11.99 14 9.5 14z" fill="#ffffff"/>
    <path d="M0 0h24v24H0z" fill="none"/>
</g><g transform="translate(0,4368)"><path fill="#5F6368" d="M19 5v4H4V5h15m0 10v4H4v-4h15m1-12H3c-.55 0-1 .45-1 1v6c0 .55.45 1 1 1h17c.55 0 1-.45 1-1V4c0-.55-.45-1-1-1zm0 10H3c-.55 0-1 .45-1 1v6c0 .55.45 1 1 1h17c.55 0 1-.45 1-1v-6c0-.55-.45-1-1-1z"/>
</g><g transform="translate(0,2314)"><path fill="#000000" d="M19 5v4H4V5h15m0 10v4H4v-4h15m1-12H3c-.55 0-1 .45-1 1v6c0 .55.45 1 1 1h17c.55 0 1-.45 1-1V4c0-.55-.45-1-1-1zm0 10H3c-.55 0-1 .45-1 1v6c0 .55.45 1 1 1h17c.55 0 1-.45 1-1v-6c0-.55-.45-1-1-1z"/>
</g><g transform="translate(0,2548)"><path fill="#ffffff" d="M19 5v4H4V5h15m0 10v4H4v-4h15m1-12H3c-.55 0-1 .45-1 1v6c0 .55.45 1 1 1h17c.55 0 1-.45 1-1V4c0-.55-.45-1-1-1zm0 10H3c-.55 0-1 .45-1 1v6c0 .55.45 1 1 1h17c.55 0 1-.45 1-1v-6c0-.55-.45-1-1-1z"/>
</g><g transform="translate(0,3250)"><path fill="#5F6368" d="M2 3v18l20-9L2 3zm2 11l9-2-9-2V6.09L17.13 12 4 17.91V14z"/>
</g><g transform="translate(0,3692)"><path fill="#000000" d="M2 3v18l20-9L2 3zm2 11l9-2-9-2V6.09L17.13 12 4 17.91V14z"/>
</g><g transform="translate(0,5538)"><path fill="#FFFFFF" d="M2 3v18l20-9L2 3zm2 11l9-2-9-2V6.09L17.13 12 4 17.91V14z"/>
</g><g transform="translate(0,7436)"><path fill="#5F6368" d="M13.85 22.25h-3.7c-.74 0-1.36-.54-1.45-1.27l-.27-1.89c-.27-.14-.53-.29-.79-.46l-1.8.72c-.7.26-1.47-.03-1.81-.65L2.2 15.53c-.35-.66-.2-1.44.36-1.88l1.53-1.19c-.01-.15-.02-.3-.02-.46 0-.15.01-.31.02-.46l-1.52-1.19c-.59-.45-.74-1.26-.37-1.88l1.85-3.19c.34-.62 1.11-.9 1.79-.63l1.81.73c.26-.17.52-.32.78-.46l.27-1.91c.09-.7.71-1.25 1.44-1.25h3.7c.74 0 1.36.54 1.45 1.27l.27 1.89c.27.14.53.29.79.46l1.8-.72c.71-.26 1.48.03 1.82.65l1.84 3.18c.36.66.2 1.44-.36 1.88l-1.52 1.19c.01.15.02.3.02.46s-.01.31-.02.46l1.52 1.19c.56.45.72 1.23.37 1.86l-1.86 3.22c-.34.62-1.11.9-1.8.63l-1.8-.72c-.26.17-.52.32-.78.46l-.27 1.91c-.1.68-.72 1.22-1.46 1.22zm-3.23-2h2.76l.37-2.55.53-.22c.44-.18.88-.44 1.34-.78l.45-.34 2.38.96 1.38-2.4-2.03-1.58.07-.56c.03-.26.06-.51.06-.78s-.03-.53-.06-.78l-.07-.56 2.03-1.58-1.39-2.4-2.39.96-.45-.35c-.42-.32-.87-.58-1.33-.77l-.52-.22-.37-2.55h-2.76l-.37 2.55-.53.21c-.44.19-.88.44-1.34.79l-.45.33-2.38-.95-1.39 2.39 2.03 1.58-.07.56c-.03.26-.06.53-.06.79s.02.53.06.78l.07.56-2.03 1.58 1.38 2.4 2.39-.96.45.35c.43.33.86.58 1.33.77l.53.22.38 2.55z"/>
  <circle fill="#5F6368" cx="12" cy="12" r="3.5"/>
</g><g transform="translate(0,7410)"><path fill="#000000" d="M13.85 22.25h-3.7c-.74 0-1.36-.54-1.45-1.27l-.27-1.89c-.27-.14-.53-.29-.79-.46l-1.8.72c-.7.26-1.47-.03-1.81-.65L2.2 15.53c-.35-.66-.2-1.44.36-1.88l1.53-1.19c-.01-.15-.02-.3-.02-.46 0-.15.01-.31.02-.46l-1.52-1.19c-.59-.45-.74-1.26-.37-1.88l1.85-3.19c.34-.62 1.11-.9 1.79-.63l1.81.73c.26-.17.52-.32.78-.46l.27-1.91c.09-.7.71-1.25 1.44-1.25h3.7c.74 0 1.36.54 1.45 1.27l.27 1.89c.27.14.53.29.79.46l1.8-.72c.71-.26 1.48.03 1.82.65l1.84 3.18c.36.66.2 1.44-.36 1.88l-1.52 1.19c.01.15.02.3.02.46s-.01.31-.02.46l1.52 1.19c.56.45.72 1.23.37 1.86l-1.86 3.22c-.34.62-1.11.9-1.8.63l-1.8-.72c-.26.17-.52.32-.78.46l-.27 1.91c-.1.68-.72 1.22-1.46 1.22zm-3.23-2h2.76l.37-2.55.53-.22c.44-.18.88-.44 1.34-.78l.45-.34 2.38.96 1.38-2.4-2.03-1.58.07-.56c.03-.26.06-.51.06-.78s-.03-.53-.06-.78l-.07-.56 2.03-1.58-1.39-2.4-2.39.96-.45-.35c-.42-.32-.87-.58-1.33-.77l-.52-.22-.37-2.55h-2.76l-.37 2.55-.53.21c-.44.19-.88.44-1.34.79l-.45.33-2.38-.95-1.39 2.39 2.03 1.58-.07.56c-.03.26-.06.53-.06.79s.02.53.06.78l.07.56-2.03 1.58 1.38 2.4 2.39-.96.45.35c.43.33.86.58 1.33.77l.53.22.38 2.55z"/>
  <circle fill="#000000" cx="12" cy="12" r="3.5"/>
</g><g transform="translate(0,1404)"><path fill="#FFFFFF" d="M13.85 22.25h-3.7c-.74 0-1.36-.54-1.45-1.27l-.27-1.89c-.27-.14-.53-.29-.79-.46l-1.8.72c-.7.26-1.47-.03-1.81-.65L2.2 15.53c-.35-.66-.2-1.44.36-1.88l1.53-1.19c-.01-.15-.02-.3-.02-.46 0-.15.01-.31.02-.46l-1.52-1.19c-.59-.45-.74-1.26-.37-1.88l1.85-3.19c.34-.62 1.11-.9 1.79-.63l1.81.73c.26-.17.52-.32.78-.46l.27-1.91c.09-.7.71-1.25 1.44-1.25h3.7c.74 0 1.36.54 1.45 1.27l.27 1.89c.27.14.53.29.79.46l1.8-.72c.71-.26 1.48.03 1.82.65l1.84 3.18c.36.66.2 1.44-.36 1.88l-1.52 1.19c.01.15.02.3.02.46s-.01.31-.02.46l1.52 1.19c.56.45.72 1.23.37 1.86l-1.86 3.22c-.34.62-1.11.9-1.8.63l-1.8-.72c-.26.17-.52.32-.78.46l-.27 1.91c-.1.68-.72 1.22-1.46 1.22zm-3.23-2h2.76l.37-2.55.53-.22c.44-.18.88-.44 1.34-.78l.45-.34 2.38.96 1.38-2.4-2.03-1.58.07-.56c.03-.26.06-.51.06-.78s-.03-.53-.06-.78l-.07-.56 2.03-1.58-1.39-2.4-2.39.96-.45-.35c-.42-.32-.87-.58-1.33-.77l-.52-.22-.37-2.55h-2.76l-.37 2.55-.53.21c-.44.19-.88.44-1.34.79l-.45.33-2.38-.95-1.39 2.39 2.03 1.58-.07.56c-.03.26-.06.53-.06.79s.02.53.06.78l.07.56-2.03 1.58 1.38 2.4 2.39-.96.45.35c.43.33.86.58 1.33.77l.53.22.38 2.55z"/>
  <circle fill="#FFFFFF" cx="12" cy="12" r="3.5"/>
</g><g transform="translate(0,4030)"><path d="M0 0h24v24H0z" fill="none"/>
    <path d="M18 16.08c-.76 0-1.44.3-1.96.77L8.91 12.7c.05-.23.09-.46.09-.7s-.04-.47-.09-.7l7.05-4.11c.54.5 1.25.81 2.04.81 1.66 0 3-1.34 3-3s-1.34-3-3-3-3 1.34-3 3c0 .24.04.47.09.7L8.04 9.81C7.5 9.31 6.79 9 6 9c-1.66 0-3 1.34-3 3s1.34 3 3 3c.79 0 1.5-.31 2.04-.81l7.12 4.16c-.05.21-.08.43-.08.65 0 1.61 1.31 2.92 2.92 2.92 1.61 0 2.92-1.31 2.92-2.92s-1.31-2.92-2.92-2.92z"/>
</g><g transform="translate(0,0)"><path d="M0 0h24v24H0z" fill="none"/>
    <path d="M18 16.08c-.76 0-1.44.3-1.96.77L8.91 12.7c.05-.23.09-.46.09-.7s-.04-.47-.09-.7l7.05-4.11c.54.5 1.25.81 2.04.81 1.66 0 3-1.34 3-3s-1.34-3-3-3-3 1.34-3 3c0 .24.04.47.09.7L8.04 9.81C7.5 9.31 6.79 9 6 9c-1.66 0-3 1.34-3 3s1.34 3 3 3c.79 0 1.5-.31 2.04-.81l7.12 4.16c-.05.21-.08.43-.08.65 0 1.61 1.31 2.92 2.92 2.92 1.61 0 2.92-1.31 2.92-2.92s-1.31-2.92-2.92-2.92z" fill="#ffffff"/>
</g><g transform="translate(0,4654)"><path d="M0 0h24v24H0z" fill="none"/>
  <path d="M19 3H5c-1.1 0-1.99.9-1.99 2L3 8v11c0 1.1.9 2 2 2h14c1.1 0 2-.9 2-2V5c0-1.1-.9-2-2-2zm0 8h-8v8H9v-8H5V9h4V5h2v4h8v2z" fill="#0F9D58"/>
</g><g transform="translate(0,1456)"><path d="M0 0h24v24H0z" fill="none"/>
    <path d="M12 17.27L18.18 21l-1.64-7.03L22 9.24l-7.19-.61L12 2 9.19 8.63 2 9.24l5.46 4.73L5.82 21z"/>
    <path d="M0 0h24v24H0z" fill="none"/>
</g><g transform="translate(0,6630)"><path d="M22 9.24l-7.19-.62L12 2 9.19 8.63 2 9.24l5.46 4.73L5.82 21 12 17.27 18.18 21l-1.63-7.03L22 9.24zM12 15.4l-3.76 2.27 1-4.28-3.32-2.88 4.38-.38L12 6.1l1.71 4.04 4.38.38-3.32 2.88 1 4.28L12 15.4z"/>
    <path d="M0 0h24v24H0z" fill="none"/>
</g><g transform="translate(0,6370)"><path d="M22 9.24l-7.19-.62L12 2 9.19 8.63 2 9.24l5.46 4.73L5.82 21 12 17.27 18.18 21l-1.63-7.03L22 9.24zM12 15.4l-3.76 2.27 1-4.28-3.32-2.88 4.38-.38L12 6.1l1.71 4.04 4.38.38-3.32 2.88 1 4.28L12 15.4z" fill="#5F6368"/>
    <path d="M0 0h24v24H0z" fill="none"/>
</g><g transform="translate(0,312)"><path d="M22 9.24l-7.19-.62L12 2 9.19 8.63 2 9.24l5.46 4.73L5.82 21 12 17.27 18.18 21l-1.63-7.03L22 9.24zM12 15.4l-3.76 2.27 1-4.28-3.32-2.88 4.38-.38L12 6.1l1.71 4.04 4.38.38-3.32 2.88 1 4.28L12 15.4z" fill="#FFFFFF"/>
    <path d="M0 0h24v24H0z" fill="none"/>
</g><g transform="translate(0,208)"><path d="M0 0h24v24H0z" fill="none"/>
    <path d="M12 17.27L18.18 21l-1.64-7.03L22 9.24l-7.19-.61L12 2 9.19 8.63 2 9.24l5.46 4.73L5.82 21z" fill="#5F6368"/>
    <path d="M0 0h24v24H0z" fill="none"/>
</g><g transform="translate(0,6422)"><path d="M0 0h24v24H0z" fill="none"/>
    <path d="M12 17.27L18.18 21l-1.64-7.03L22 9.24l-7.19-.61L12 2 9.19 8.63 2 9.24l5.46 4.73L5.82 21z" fill="#FFFFFF"/>
    <path d="M0 0h24v24H0z" fill="none"/>
</g><g transform="translate(0,1950)"><path d="M6.45708 14.2734L7.10579 12.5834L8.97652 13.294L7.09626 18.1922L2.20715 16.3079L2.92175 14.4463L4.63812 15.1051C3.86526 13.2709 3.76842 11.1357 4.53877 9.12887C6.12001 5.00959 10.7517 2.94744 14.871 4.52868L14.1564 6.39028C11.0669 5.20435 7.5863 6.75401 6.40036 9.84347C5.84794 11.2826 5.86724 12.8503 6.45708 14.2734Z" fill="#5f6368"/>
  <path d="M16.7704 5.50009L21.6686 7.38035L20.9449 9.24602L19.2285 8.58717C19.2407 8.61457 19.2552 8.64096 19.2697 8.66735C19.2842 8.69374 19.2987 8.72013 19.3109 8.74754C20.1447 10.6203 20.2619 12.8012 19.453 14.869C17.8717 18.9882 13.2401 21.0504 9.12078 19.4692L9.83538 17.6076C12.9248 18.7935 16.4055 17.2438 17.5914 14.1544C18.1732 12.6584 18.1254 11.0268 17.4747 9.56508C17.4645 9.54224 17.451 9.51814 17.4376 9.49403C17.4241 9.46992 17.4106 9.44582 17.4004 9.42298L16.7517 11.1129L14.8901 10.3983L16.7704 5.50009Z" fill="#5f6368"/>
</g><g transform="translate(0,2080)"><path d="M6.45708 14.2734L7.10579 12.5834L8.97652 13.294L7.09626 18.1922L2.20715 16.3079L2.92175 14.4463L4.63812 15.1051C3.86526 13.2709 3.76842 11.1357 4.53877 9.12887C6.12001 5.00959 10.7517 2.94744 14.871 4.52868L14.1564 6.39028C11.0669 5.20435 7.5863 6.75401 6.40036 9.84347C5.84794 11.2826 5.86724 12.8503 6.45708 14.2734Z" fill="#000000"/>
  <path d="M16.7704 5.50009L21.6686 7.38035L20.9449 9.24602L19.2285 8.58717C19.2407 8.61457 19.2552 8.64096 19.2697 8.66735C19.2842 8.69374 19.2987 8.72013 19.3109 8.74754C20.1447 10.6203 20.2619 12.8012 19.453 14.869C17.8717 18.9882 13.2401 21.0504 9.12078 19.4692L9.83538 17.6076C12.9248 18.7935 16.4055 17.2438 17.5914 14.1544C18.1732 12.6584 18.1254 11.0268 17.4747 9.56508C17.4645 9.54224 17.451 9.51814 17.4376 9.49403C17.4241 9.46992 17.4106 9.44582 17.4004 9.42298L16.7517 11.1129L14.8901 10.3983L16.7704 5.50009Z" fill="#000000"/>
</g><g transform="translate(0,3380)"><path fill="#5f6368" d="M11 15h2v2h-2zm0-8h2v6h-2zm10-3h-6v6h2V7.56c1.22 1.1 2 2.67 2 4.44 0 2.61-1.67 4.82-4 5.65v2.09c3.45-.89 6-4.01 6-7.74 0-2.4-1.06-4.54-2.73-6H21V4zM3 12c0 2.4 1.06 4.54 2.73 6H3v2h6v-6H7v2.44c-1.22-1.1-2-2.67-2-4.44 0-2.61 1.67-4.82 4-5.65V4.26C5.55 5.15 3 8.27 3 12z"/>
  <path d="M0 0h24v24H0z" fill="none"/>
</g><g transform="translate(0,2600)"><path fill="#000000" d="M11 15h2v2h-2zm0-8h2v6h-2zm10-3h-6v6h2V7.56c1.22 1.1 2 2.67 2 4.44 0 2.61-1.67 4.82-4 5.65v2.09c3.45-.89 6-4.01 6-7.74 0-2.4-1.06-4.54-2.73-6H21V4zM3 12c0 2.4 1.06 4.54 2.73 6H3v2h6v-6H7v2.44c-1.22-1.1-2-2.67-2-4.44 0-2.61 1.67-4.82 4-5.65V4.26C5.55 5.15 3 8.27 3 12z"/>
  <path d="M0 0h24v24H0z" fill="none"/>
</g><g transform="translate(0,910)"><path fill="#ffffff" d="M11 15h2v2h-2zm0-8h2v6h-2zm10-3h-6v6h2V7.56c1.22 1.1 2 2.67 2 4.44 0 2.61-1.67 4.82-4 5.65v2.09c3.45-.89 6-4.01 6-7.74 0-2.4-1.06-4.54-2.73-6H21V4zM3 12c0 2.4 1.06 4.54 2.73 6H3v2h6v-6H7v2.44c-1.22-1.1-2-2.67-2-4.44 0-2.61 1.67-4.82 4-5.65V4.26C5.55 5.15 3 8.27 3 12z"/>
  <path d="M0 0h24v24H0z" fill="none"/>
</g><g transform="translate(0,1612)"><path d="M6.45708 14.2734L7.10579 12.5834L8.97652 13.294L7.09626 18.1922L2.20715 16.3079L2.92175 14.4463L4.63812 15.1051C3.86526 13.2709 3.76842 11.1357 4.53877 9.12887C6.12001 5.00959 10.7517 2.94744 14.871 4.52868L14.1564 6.39028C11.0669 5.20435 7.5863 6.75401 6.40036 9.84347C5.84794 11.2826 5.86724 12.8503 6.45708 14.2734Z" fill="#ffffff"/>
  <path d="M16.7704 5.50009L21.6686 7.38035L20.9449 9.24602L19.2285 8.58717C19.2407 8.61457 19.2552 8.64096 19.2697 8.66735C19.2842 8.69374 19.2987 8.72013 19.3109 8.74754C20.1447 10.6203 20.2619 12.8012 19.453 14.869C17.8717 18.9882 13.2401 21.0504 9.12078 19.4692L9.83538 17.6076C12.9248 18.7935 16.4055 17.2438 17.5914 14.1544C18.1732 12.6584 18.1254 11.0268 17.4747 9.56508C17.4645 9.54224 17.451 9.51814 17.4376 9.49403C17.4241 9.46992 17.4106 9.44582 17.4004 9.42298L16.7517 11.1129L14.8901 10.3983L16.7704 5.50009Z" fill="#ffffff"/>
</g><g transform="translate(0,3120)"><path d="M6 19c0 1.1.9 2 2 2h8c1.1 0 2-.9 2-2V7H6v12zM19 4h-3.5l-1-1h-5l-1 1H5v2h14V4z"/>
    <path d="M0 0h24v24H0z" fill="none"/>
</g><g transform="translate(0,5824)"><path d="M6 19c0 1.1.9 2 2 2h8c1.1 0 2-.9 2-2V7H6v12zM19 4h-3.5l-1-1h-5l-1 1H5v2h14V4z" fill="#ffffff"/>
    <path d="M0 0h24v24H0z" fill="none"/>
</g><g transform="translate(0,6110)"><path fill="#5F6368" d="M14.1 8H7.83l2.59-2.59L9 4 4 9l5 5 1.41-1.41L7.83 10h6.27c2.15 0 3.9 1.57 3.9 3.5S16.25 17 14.1 17H7v2h7.1c3.25 0 5.9-2.47 5.9-5.5S17.35 8 14.1 8z"/>
</g><g transform="translate(0,4108)"><path fill="#000000" d="M14.1 8H7.83l2.59-2.59L9 4 4 9l5 5 1.41-1.41L7.83 10h6.27c2.15 0 3.9 1.57 3.9 3.5S16.25 17 14.1 17H7v2h7.1c3.25 0 5.9-2.47 5.9-5.5S17.35 8 14.1 8z"/>
</g><g transform="translate(0,4056)"><path fill="#FFFFFF" d="M14.1 8H7.83l2.59-2.59L9 4 4 9l5 5 1.41-1.41L7.83 10h6.27c2.15 0 3.9 1.57 3.9 3.5S16.25 17 14.1 17H7v2h7.1c3.25 0 5.9-2.47 5.9-5.5S17.35 8 14.1 8z"/>
</g><g transform="translate(0,1924)"><path d="M0 0h24v24H0z" fill="none"/>
    <path d="M7.41 18.59L8.83 20 12 16.83 15.17 20l1.41-1.41L12 14l-4.59 4.59zm9.18-13.18L15.17 4 12 7.17 8.83 4 7.41 5.41 12 10l4.59-4.59z"/>
</g><g transform="translate(0,1560)"><path d="M0 0h24v24H0z" fill="none"/>
    <path d="M7.41 18.59L8.83 20 12 16.83 15.17 20l1.41-1.41L12 14l-4.59 4.59zm9.18-13.18L15.17 4 12 7.17 8.83 4 7.41 5.41 12 10l4.59-4.59z" fill="#5F6368"/>
</g><g transform="translate(0,3640)"><path d="M0 0h24v24H0z" fill="none"/>
    <path d="M7.41 18.59L8.83 20 12 16.83 15.17 20l1.41-1.41L12 14l-4.59 4.59zm9.18-13.18L15.17 4 12 7.17 8.83 4 7.41 5.41 12 10l4.59-4.59z" fill="#ffffff"/>
</g><g transform="translate(0,6734)"><path d="M0 0h24v24H0z" fill="none"/>
    <path d="M12 5.83L15.17 9l1.41-1.41L12 3 7.41 7.59 8.83 9 12 5.83zm0 12.34L8.83 15l-1.41 1.41L12 21l4.59-4.59L15.17 15 12 18.17z"/>
</g><g transform="translate(0,7254)"><path d="M0 0h24v24H0z" fill="none"/>
    <path d="M12 5.83L15.17 9l1.41-1.41L12 3 7.41 7.59 8.83 9 12 5.83zm0 12.34L8.83 15l-1.41 1.41L12 21l4.59-4.59L15.17 15 12 18.17z" fill="#5F6368"/>
</g><g transform="translate(0,6006)"><path d="M0 0h24v24H0z" fill="none"/>
    <path d="M12 5.83L15.17 9l1.41-1.41L12 3 7.41 7.59 8.83 9 12 5.83zm0 12.34L8.83 15l-1.41 1.41L12 21l4.59-4.59L15.17 15 12 18.17z" fill="#ffffff"/>
</g><g transform="translate(0,5304)"><path fill="#5F6368" d="M9,8 L9,16 L16,12 L9,8 Z M21,4 L3,4 C1.9,4 1,4.9 1,6 L1,18 C1,19.1 1.9,20 3,20 L21,20 C22.1,20 23,19.1 23,18 L23,6 C23,4.9 22.1,4 21,4 Z M21,18 L3,18 L3,6 L21,6 L21,18 Z"/>
</g><g transform="translate(0,806)"><path fill="#000000" d="M9,8 L9,16 L16,12 L9,8 Z M21,4 L3,4 C1.9,4 1,4.9 1,6 L1,18 C1,19.1 1.9,20 3,20 L21,20 C22.1,20 23,19.1 23,18 L23,6 C23,4.9 22.1,4 21,4 Z M21,18 L3,18 L3,6 L21,6 L21,18 Z"/>
</g><g transform="translate(0,1144)"><path fill="#ffffff" d="M9,8 L9,16 L16,12 L9,8 Z M21,4 L3,4 C1.9,4 1,4.9 1,6 L1,18 C1,19.1 1.9,20 3,20 L21,20 C22.1,20 23,19.1 23,18 L23,6 C23,4.9 22.1,4 21,4 Z M21,18 L3,18 L3,6 L21,6 L21,18 Z"/>
</g><g transform="translate(0,3718)"><path fill="#5F6368" d="M12 7c-2.48 0-4.5 2.02-4.5 4.5S9.52 16 12 16s4.5-2.02 4.5-4.5S14.48 7 12 7zm0 7.2c-1.49 0-2.7-1.21-2.7-2.7 0-1.49 1.21-2.7 2.7-2.7s2.7 1.21 2.7 2.7c0 1.49-1.21 2.7-2.7 2.7zM12 4C7 4 2.73 7.11 1 11.5 2.73 15.89 7 19 12 19s9.27-3.11 11-7.5C21.27 7.11 17 4 12 4zm0 13c-3.79 0-7.17-2.13-8.82-5.5C4.83 8.13 8.21 6 12 6s7.17 2.13 8.82 5.5C19.17 14.87 15.79 17 12 17z"/>
</g><g transform="translate(0,6760)"><path fill="#000000" d="M12 7c-2.48 0-4.5 2.02-4.5 4.5S9.52 16 12 16s4.5-2.02 4.5-4.5S14.48 7 12 7zm0 7.2c-1.49 0-2.7-1.21-2.7-2.7 0-1.49 1.21-2.7 2.7-2.7s2.7 1.21 2.7 2.7c0 1.49-1.21 2.7-2.7 2.7zM12 4C7 4 2.73 7.11 1 11.5 2.73 15.89 7 19 12 19s9.27-3.11 11-7.5C21.27 7.11 17 4 12 4zm0 13c-3.79 0-7.17-2.13-8.82-5.5C4.83 8.13 8.21 6 12 6s7.17 2.13 8.82 5.5C19.17 14.87 15.79 17 12 17z"/>
</g><g transform="translate(0,3458)"><path fill="#5f6368" d="M10.58 7.25l1.56 1.56c1.38.07 2.47 1.17 2.54 2.54l1.56 1.56c.16-.44.26-.91.26-1.41C16.5 9.02 14.48 7 12 7c-.5 0-.97.1-1.42.25zM12 6c3.79 0 7.17 2.13 8.82 5.5-.64 1.32-1.56 2.44-2.66 3.33l1.42 1.42c1.51-1.26 2.7-2.89 3.43-4.74C21.27 7.11 17 4 12 4c-1.4 0-2.73.25-3.98.7l1.61 1.6C10.4 6.12 11.19 6 12 6zm4.43 9.93l-1.25-1.25-1.27-1.27-3.82-3.82-1.27-1.27-1.25-1.25-1.48-1.48-2.78-2.78-1.42 1.41 2.53 2.53C2.92 8.02 1.73 9.64 1 11.5 2.73 15.89 7 19 12 19c1.4 0 2.73-.25 3.98-.7l4.3 4.3 1.41-1.41-3.78-3.78-1.48-1.48zm-4.57-1.74c-1.38-.07-2.47-1.17-2.54-2.54l2.54 2.54zM12 17c-3.79 0-7.17-2.13-8.82-5.5.64-1.32 1.56-2.44 2.66-3.33l1.91 1.91c-.15.45-.25.92-.25 1.42 0 2.48 2.02 4.5 4.5 4.5.5 0 .97-.1 1.42-.25l.95.95c-.77.18-1.56.3-2.37.3z"/>
</g><g transform="translate(0,7462)"><path fill="#000000" d="M10.58 7.25l1.56 1.56c1.38.07 2.47 1.17 2.54 2.54l1.56 1.56c.16-.44.26-.91.26-1.41C16.5 9.02 14.48 7 12 7c-.5 0-.97.1-1.42.25zM12 6c3.79 0 7.17 2.13 8.82 5.5-.64 1.32-1.56 2.44-2.66 3.33l1.42 1.42c1.51-1.26 2.7-2.89 3.43-4.74C21.27 7.11 17 4 12 4c-1.4 0-2.73.25-3.98.7l1.61 1.6C10.4 6.12 11.19 6 12 6zm4.43 9.93l-1.25-1.25-1.27-1.27-3.82-3.82-1.27-1.27-1.25-1.25-1.48-1.48-2.78-2.78-1.42 1.41 2.53 2.53C2.92 8.02 1.73 9.64 1 11.5 2.73 15.89 7 19 12 19c1.4 0 2.73-.25 3.98-.7l4.3 4.3 1.41-1.41-3.78-3.78-1.48-1.48zm-4.57-1.74c-1.38-.07-2.47-1.17-2.54-2.54l2.54 2.54zM12 17c-3.79 0-7.17-2.13-8.82-5.5.64-1.32 1.56-2.44 2.66-3.33l1.91 1.91c-.15.45-.25.92-.25 1.42 0 2.48 2.02 4.5 4.5 4.5.5 0 .97-.1 1.42-.25l.95.95c-.77.18-1.56.3-2.37.3z"/>
</g><g transform="translate(0,78)"><path fill="#ffffff" d="M10.58 7.25l1.56 1.56c1.38.07 2.47 1.17 2.54 2.54l1.56 1.56c.16-.44.26-.91.26-1.41C16.5 9.02 14.48 7 12 7c-.5 0-.97.1-1.42.25zM12 6c3.79 0 7.17 2.13 8.82 5.5-.64 1.32-1.56 2.44-2.66 3.33l1.42 1.42c1.51-1.26 2.7-2.89 3.43-4.74C21.27 7.11 17 4 12 4c-1.4 0-2.73.25-3.98.7l1.61 1.6C10.4 6.12 11.19 6 12 6zm4.43 9.93l-1.25-1.25-1.27-1.27-3.82-3.82-1.27-1.27-1.25-1.25-1.48-1.48-2.78-2.78-1.42 1.41 2.53 2.53C2.92 8.02 1.73 9.64 1 11.5 2.73 15.89 7 19 12 19c1.4 0 2.73-.25 3.98-.7l4.3 4.3 1.41-1.41-3.78-3.78-1.48-1.48zm-4.57-1.74c-1.38-.07-2.47-1.17-2.54-2.54l2.54 2.54zM12 17c-3.79 0-7.17-2.13-8.82-5.5.64-1.32 1.56-2.44 2.66-3.33l1.91 1.91c-.15.45-.25.92-.25 1.42 0 2.48 2.02 4.5 4.5 4.5.5 0 .97-.1 1.42-.25l.95.95c-.77.18-1.56.3-2.37.3z"/>
</g><g transform="translate(0,988)"><path fill="#FFFFFF" d="M12 7c-2.48 0-4.5 2.02-4.5 4.5S9.52 16 12 16s4.5-2.02 4.5-4.5S14.48 7 12 7zm0 7.2c-1.49 0-2.7-1.21-2.7-2.7 0-1.49 1.21-2.7 2.7-2.7s2.7 1.21 2.7 2.7c0 1.49-1.21 2.7-2.7 2.7zM12 4C7 4 2.73 7.11 1 11.5 2.73 15.89 7 19 12 19s9.27-3.11 11-7.5C21.27 7.11 17 4 12 4zm0 13c-3.79 0-7.17-2.13-8.82-5.5C4.83 8.13 8.21 6 12 6s7.17 2.13 8.82 5.5C19.17 14.87 15.79 17 12 17z"/>
</g><g transform="translate(0,702)"><path d="M0 0h24v24H0z" fill="none"/>
    <path d="M1 21h22L12 2 1 21zm12-3h-2v-2h2v2zm0-4h-2v-4h2v4z" fill="#E46337"/>
</g><g transform="translate(0,3016)"><path d="M0 0h24v24H0z" fill="none"/>
    <path d="M1 21h22L12 2 1 21zm12-3h-2v-2h2v2zm0-4h-2v-4h2v4z" fill="#F29900"/>
</g><g transform="translate(0,3068)"><path d="M12 17.27L18.18 21l-1.64-7.03L22 9.24l-7.19-.61L12 2 9.19 8.63 2 9.24l5.46 4.73L5.82 21z"/></g><g transform="translate(0,4810)"><path d="M12 17.27L18.18 21l-1.64-7.03L22 9.24l-7.19-.61L12 2 9.19 8.63 2 9.24l5.46 4.73L5.82 21z" fill="#ffffff"/></g><g transform="translate(0,3744)"><path fill="#5F6368" d="M 17.53,7.53 16.47,6.47 12,10.94 7.53,6.47 6.47,7.53 10.94,12 6.47,16.47 7.53,17.53 12,13.06 16.47,17.53 17.53,16.47 13.06,12 z"/>
</g><g transform="translate(0,3354)"><path d="M 17.53,7.53 16.47,6.47 12,10.94 7.53,6.47 6.47,7.53 10.94,12 6.47,16.47 7.53,17.53 12,13.06 16.47,17.53 17.53,16.47 13.06,12 z"/></g><g transform="translate(0,4446)"><path d="M 17.53,7.53 16.47,6.47 12,10.94 7.53,6.47 6.47,7.53 10.94,12 6.47,16.47 7.53,17.53 12,13.06 16.47,17.53 17.53,16.47 13.06,12 z" fill="#D93025"/></g><g transform="translate(0,2470)"><path d="M 17.53,7.53 16.47,6.47 12,10.94 7.53,6.47 6.47,7.53 10.94,12 6.47,16.47 7.53,17.53 12,13.06 16.47,17.53 17.53,16.47 13.06,12 z" fill="#ffffff"/></g></svg>